<svg width="73" height="72" viewBox="0 0 73 72" fill="none" xmlns="http://www.w3.org/2000/svg">
<rect x="0.75" width="72" height="72" rx="36" fill="#98A9D4"/>
<g clip-path="url(#clip0_331_2722)">
<path d="M14.4697 19.9453L14.25 20.1328V36V51.8672L14.4697 52.0547L14.6807 52.25H32.5137C49.9512 52.25 50.3555 52.25 50.5576 52.1016L50.7686 51.9531V36V20.0469L50.5576 19.8984C50.3555 19.75 49.9512 19.75 32.5137 19.75H14.6807L14.4697 19.9453ZM49.582 36V51.1562H32.5312H15.4805V36V20.8438H32.5312H49.582V36Z" fill="white"/>
<path d="M16.7287 21.7031C16.6232 21.7422 16.4914 21.8672 16.4474 21.9844C16.3859 22.1172 16.3683 27.0312 16.3771 36.125C16.4035 49.3828 16.4123 50.0625 16.5617 50.1953C16.7111 50.3281 17.467 50.3359 32.4787 50.3359C47.8595 50.3359 48.2463 50.3359 48.4308 50.1875L48.6154 50.0391V35.9922V21.9453L48.3869 21.7891L48.1496 21.625L32.5402 21.6328C23.382 21.6328 16.8517 21.6641 16.7287 21.7031ZM47.4728 35.2344C47.4728 42.1172 47.4552 47.7266 47.4289 47.7109C47.4113 47.6875 46.1633 45.7422 44.6691 43.375C42.8058 40.4297 41.883 39.0469 41.7248 38.9688C41.2502 38.7266 41.1447 38.8359 39.6769 41.1562C38.9299 42.3359 38.297 43.3281 38.2619 43.3594C38.2267 43.3906 37.0314 41.2969 35.5988 38.7109C32.8215 33.6797 32.8127 33.6719 32.3117 33.875C32.1183 33.9531 31.6349 34.7656 29.4465 38.7031C27.9963 41.3125 26.801 43.4297 26.7834 43.4141C26.7658 43.3984 26.1681 42.4531 25.4562 41.3125C24.7443 40.1719 24.0763 39.1641 23.9797 39.0625C23.7511 38.8438 23.382 38.8438 23.1535 39.0625C23.0568 39.1641 21.7824 41.1406 20.3146 43.4609C18.8468 45.7812 17.634 47.6953 17.6252 47.7109C17.6076 47.7266 17.59 42.1172 17.59 35.2344V22.7188H32.5314H47.4728V35.2344ZM36.3459 42.4766C38.4025 46.1875 40.09 49.2344 40.09 49.25C40.09 49.2656 37.9279 49.2734 35.2912 49.2656L30.4924 49.2422L29.007 46.9141L27.5304 44.5859L30.009 40.1016C31.3713 37.6328 32.5138 35.6406 32.549 35.6719C32.5842 35.7031 34.2892 38.7656 36.3459 42.4766ZM26.4582 45.0625L29.1037 49.2422L26.3351 49.2656C24.8146 49.2734 22.3185 49.2734 20.798 49.2656L18.0295 49.2422L20.675 45.0625C22.134 42.7656 23.382 40.7969 23.4523 40.6953L23.5929 40.5078L23.6984 40.6953C23.7599 40.7969 25.008 42.7656 26.4582 45.0625ZM44.089 44.6328C45.4777 46.8203 46.7082 48.7656 46.8312 48.9453L47.051 49.2812H44.2472H41.4435L40.1603 46.9375L38.8683 44.5938L40.1603 42.5625C40.8635 41.4453 41.4699 40.5547 41.5051 40.5938C41.5402 40.625 42.7004 42.4375 44.089 44.6328Z" fill="white"/>
<path d="M39.6581 26.2042C37.329 26.7589 36.0194 28.9933 36.8544 30.9855C37.4872 32.5167 39.3329 33.5636 41.0731 33.3917C42.9892 33.1964 44.4393 31.9855 44.7645 30.3136C45.2567 27.7511 42.4882 25.5245 39.6581 26.2042ZM41.9784 27.4073C42.5321 27.6495 43.0683 28.1261 43.3495 28.6183C43.5253 28.9542 43.5604 29.1183 43.5604 29.7511C43.5604 30.3995 43.5253 30.5401 43.3231 30.8839C43.0419 31.3683 42.4179 31.8917 41.8642 32.1183C41.5477 32.2511 41.2841 32.2901 40.704 32.2901C40.0624 32.2901 39.8866 32.2589 39.4559 32.0714C37.7684 31.337 37.2938 29.4776 38.4452 28.1026C38.6649 27.8292 39.289 27.4308 39.7108 27.2901C40.247 27.1105 41.4423 27.1651 41.9784 27.4073Z" fill="white"/>
<path d="M52.4824 19.8047C52.4121 19.8281 52.2803 19.8984 52.2012 19.9688C52.0518 20.0781 52.043 20.7656 52.043 32.375V44.6719L53.5459 48.2422C54.3633 50.2109 55.1016 51.8984 55.1719 51.9922C55.2598 52.1172 55.3828 52.1719 55.585 52.1719C55.9102 52.1719 56.0244 52.1172 56.1475 51.8984C56.2617 51.7109 57.5098 48.7969 58.5117 46.3672L59.25 44.5859V32.3672C59.25 20.4609 59.25 20.1563 59.083 19.9766L58.916 19.7891L55.7607 19.7734C54.0293 19.7656 52.5527 19.7813 52.4824 19.8047ZM58.0195 23.0313V25.2188H55.6025H53.1855V23.0313V20.8438H55.6025H58.0195V23.0313ZM58.0195 35.1406V43.9688H55.6025H53.1855V35.1406V26.3125H55.6025H58.0195V35.1406ZM57.7207 45.1953C57.6943 45.2734 57.4922 45.7422 57.2812 46.2344L56.9033 47.1328L55.6377 47.1563L54.3721 47.1797L53.9502 46.1797C53.7217 45.625 53.5371 45.1563 53.5371 45.1172C53.5371 45.0859 54.4863 45.0625 55.6553 45.0625C57.624 45.0625 57.7646 45.0703 57.7207 45.1953ZM56.209 48.7891C56.0859 49.0859 55.9014 49.5078 55.8047 49.7422L55.6289 50.1641L55.2422 49.2344C55.0312 48.7266 54.8555 48.3047 54.8555 48.2891C54.8555 48.2734 55.207 48.2656 55.6465 48.2656H56.4287L56.209 48.7891Z" fill="white"/>
<path d="M55.1719 29.3754C55.0488 29.5316 55.0312 30.2113 55.0312 35.1644V40.7738L55.2598 40.9691C55.4268 41.1254 55.5322 41.1566 55.7168 41.1176C56.2441 41.0082 56.2178 41.3441 56.2441 35.3129C56.2529 32.2738 56.2441 29.7113 56.2178 29.6176C56.1035 29.1957 55.4355 29.0394 55.1719 29.3754Z" fill="white"/>
</g>
<defs>
<clipPath id="clip0_331_2722">
<rect width="45" height="40" fill="white" transform="translate(14.25 16)"/>
</clipPath>
</defs>
</svg>
