<svg width="73" height="72" viewBox="0 0 73 72" fill="none" xmlns="http://www.w3.org/2000/svg">
<rect x="0.25" width="72" height="72" rx="36" fill="#98A9D4"/>
<path d="M30.4743 22.2679C29.7539 22.5703 29.2185 23.0093 28.8583 23.5849C28.5079 24.1312 28.2548 24.941 28.2548 25.5068C28.2548 25.9653 28.4884 26.8336 28.7318 27.2531C28.8583 27.4775 28.8583 27.5457 28.761 27.575C28.4105 27.7018 27.7973 28.2969 27.5831 28.7262C27.3592 29.1554 27.33 29.3408 27.3008 30.4432C27.2716 31.4871 27.291 31.7017 27.4273 31.8383C27.6318 32.0334 27.9043 32.0431 28.099 31.8383C28.2256 31.7212 28.2548 31.4675 28.2548 30.6676C28.2548 30.0237 28.3035 29.5262 28.3911 29.331C28.5663 28.9018 29.0238 28.5311 29.6176 28.336C30.2017 28.1408 30.4159 27.8287 30.192 27.5262C30.1141 27.4189 29.9194 27.1555 29.7442 26.9311C29.1991 26.2092 29.1309 25.1458 29.569 24.2971C29.9681 23.5069 31.0194 22.9606 31.9345 23.0484C34.0567 23.2337 34.9523 25.6336 33.5115 27.2726C33.0443 27.8091 33.1514 28.0628 33.9983 28.3847C34.5434 28.5994 34.9036 28.8725 35.0983 29.214C35.1567 29.3213 35.2346 29.9554 35.2638 30.6286L35.3125 31.848L35.5753 31.9358C35.7895 32.0139 35.8868 31.9944 36.0426 31.848C36.2178 31.6919 36.2373 31.5553 36.2373 30.6383C36.2373 30.0725 36.1886 29.4286 36.1302 29.2237C35.9744 28.6774 35.6045 28.1506 35.1372 27.8384C34.9133 27.6823 34.7089 27.5555 34.6894 27.536C34.67 27.5262 34.7771 27.2336 34.9231 26.9019C35.1567 26.3946 35.2054 26.1507 35.2054 25.5068C35.2151 24.8337 35.1762 24.6385 34.9133 24.0922C34.5434 23.3118 33.9301 22.6776 33.2195 22.3459C32.4407 21.985 31.2433 21.946 30.4743 22.2679Z" fill="white"/>
<path d="M38.4176 23.6213C38.3495 23.6895 38.3008 23.8554 38.3008 23.992C38.3008 24.509 38.8557 24.6651 39.138 24.2359C39.284 24.0115 39.284 23.9725 39.138 23.7481C38.9627 23.4847 38.6123 23.4261 38.4176 23.6213Z" fill="white"/>
<path d="M40.3865 23.6996C40.2405 23.8557 40.221 23.9533 40.2989 24.1679L40.3865 24.4313L42.6645 24.4606C45.0689 24.4898 45.2052 24.4606 45.2052 24.0313C45.2052 23.5338 45.0787 23.5045 42.7326 23.5045C40.6786 23.5045 40.552 23.5143 40.3865 23.6996Z" fill="white"/>
<path d="M38.4123 26.6533C38.1981 26.8679 38.2662 27.3069 38.5291 27.4337C38.8309 27.5703 39.045 27.4825 39.191 27.1703C39.2787 26.9655 39.2689 26.8972 39.1229 26.7313C38.9282 26.5167 38.5875 26.4777 38.4123 26.6533Z" fill="white"/>
<path d="M40.3342 26.7215C40.1881 26.9947 40.2174 27.1703 40.412 27.3459C40.5678 27.4922 40.8793 27.5117 42.7484 27.5117C45.0652 27.5117 45.2015 27.4825 45.2015 26.9849C45.2015 26.5557 45.0945 26.5361 42.6997 26.5361C40.5678 26.5361 40.4315 26.5459 40.3342 26.7215Z" fill="white"/>
<path d="M38.5053 29.6301C38.2133 29.8252 38.2328 30.313 38.5345 30.4496C38.9726 30.6545 39.4107 30.1959 39.1868 29.7764C39.0505 29.5228 38.7487 29.4545 38.5053 29.6301Z" fill="white"/>
<path d="M40.4485 29.6142C40.3317 29.6923 40.2344 29.8679 40.2344 29.9947C40.2344 30.4727 40.4875 30.5312 42.7167 30.5312C44.946 30.5312 45.1991 30.4727 45.1991 29.9947C45.1991 29.5167 44.946 29.4581 42.7167 29.4581C41.0229 29.4581 40.6335 29.4874 40.4485 29.6142Z" fill="white"/>
<path d="M30.9565 37.1302C30.7715 37.3058 30.7521 37.6668 30.9175 37.8326C31.083 37.9985 44.9258 37.9985 45.0913 37.8326C45.2665 37.657 45.2373 37.3156 45.0329 37.14C44.8674 36.9839 44.2347 36.9741 37.9752 36.9741C31.8618 36.9741 31.0928 36.9937 30.9565 37.1302Z" fill="white"/>
<path d="M27.4409 40.1532C27.2559 40.3288 27.2364 40.6897 27.4019 40.8556C27.4895 40.9434 28.0834 40.9727 29.4852 40.9727C31.1498 40.9727 31.4808 40.9531 31.6073 40.8166C31.8118 40.6117 31.802 40.358 31.5879 40.1629C31.325 39.919 27.6745 39.919 27.4409 40.1532Z" fill="white"/>
<path d="M32.9097 40.1702C32.6956 40.4044 32.7053 40.6092 32.9195 40.8044C33.2797 41.136 33.7177 40.9507 33.7177 40.4824C33.7177 40.0044 33.2213 39.819 32.9097 40.1702Z" fill="white"/>
<path d="M34.9625 40.101C34.7581 40.2181 34.7289 40.6766 34.9041 40.8522C35.0696 41.018 44.9212 41.018 45.0866 40.8522C45.2521 40.6863 45.2327 40.3254 45.0477 40.1498C44.9114 40.0132 44.3273 39.9937 40.0149 39.9937C36.8803 39.9937 35.0696 40.0327 34.9625 40.101Z" fill="white"/>
<path d="M27.4019 43.1337C27.2364 43.2995 27.2559 43.6605 27.4409 43.8361C27.5771 43.9727 28.5117 43.9922 36.2411 43.9922C43.9704 43.9922 44.905 43.9727 45.0413 43.8361C45.2262 43.6605 45.2457 43.2995 45.0802 43.1337C44.9147 42.9678 27.5674 42.9678 27.4019 43.1337Z" fill="white"/>
<path d="M27.4935 46.1064C27.2209 46.3015 27.2209 46.6722 27.4935 46.8673C27.6882 47.0039 28.3209 47.0234 32.4874 47.0234C37.676 47.0234 37.6955 47.0234 37.6955 46.4869C37.6955 45.9503 37.676 45.9503 32.4874 45.9503C28.3209 45.9503 27.6882 45.9698 27.4935 46.1064Z" fill="white"/>
<path d="M38.9876 46.1064C38.8708 46.1844 38.7734 46.36 38.7734 46.4869C38.7734 46.6917 39.0849 47.0234 39.2796 47.0234C39.4159 47.0234 39.7469 46.643 39.7469 46.4869C39.7469 46.3308 39.4159 45.9503 39.2796 45.9503C39.2407 45.9503 39.1044 46.0186 38.9876 46.1064Z" fill="white"/>
<path d="M40.9252 46.1454C40.8181 46.2527 40.7305 46.4088 40.7305 46.4869C40.7305 46.5649 40.8181 46.721 40.9252 46.8283C41.1101 47.0137 41.2464 47.0234 42.95 47.0234C44.9359 47.0234 45.2084 46.9551 45.2084 46.4869C45.2084 46.0186 44.9359 45.9503 42.95 45.9503C41.2464 45.9503 41.1101 45.9601 40.9252 46.1454Z" fill="white"/>
<path d="M27.4497 49.1419C27.255 49.3566 27.2355 49.659 27.401 49.8248C27.5665 49.9907 41.4093 49.9907 41.5748 49.8248C41.7403 49.659 41.7208 49.298 41.5358 49.1224C41.3995 48.9858 40.6305 48.9663 34.4976 48.9663C27.9461 48.9663 27.5957 48.9761 27.4497 49.1419Z" fill="white"/>
<mask id="path-18-inside-1_331_2693" fill="white">
<rect x="20.9219" y="17" width="30.6562" height="38.0039" rx="1"/>
</mask>
<rect x="20.9219" y="17" width="30.6562" height="38.0039" rx="1" stroke="white" stroke-width="3" mask="url(#path-18-inside-1_331_2693)"/>
</svg>
