<svg width="75" height="75" viewBox="0 0 75 75" fill="none" xmlns="http://www.w3.org/2000/svg">
<g clip-path="url(#clip0_329_1901)">
<path d="M29.7515 6.64263C29.938 6.64134 30.1244 6.64006 30.3166 6.63874C30.8238 6.63542 31.331 6.63668 31.8383 6.63901C32.3717 6.64088 32.9051 6.63915 33.4385 6.638C34.334 6.63667 35.2293 6.63841 36.1248 6.64191C37.1567 6.6459 38.1886 6.6446 39.2206 6.64057C40.1101 6.63724 40.9997 6.63679 41.8892 6.6387C42.4189 6.63983 42.9487 6.64001 43.4784 6.63757C44.0695 6.63504 44.6604 6.63856 45.2514 6.64263C45.5113 6.6404 45.5113 6.6404 45.7764 6.63813C47.151 6.65559 48.1671 7.01733 49.1922 7.94418C49.719 8.51735 50.055 9.14891 50.4013 9.84104C50.4671 9.97193 50.533 10.1028 50.6008 10.2377C51.4339 11.895 52.263 13.5543 53.0923 15.2135C53.243 15.5148 53.3936 15.8161 53.5442 16.1174C53.9095 16.8481 54.2749 17.5789 54.6401 18.3097C54.7271 18.3097 54.8141 18.3098 54.9037 18.3099C57.0252 18.3121 59.1466 18.3183 61.2681 18.329C62.294 18.3341 63.3199 18.3378 64.3459 18.3383C65.3365 18.3388 66.3271 18.3431 67.3178 18.3497C67.6952 18.3516 68.0725 18.3523 68.4499 18.3516C68.9798 18.3509 69.5094 18.3547 70.0392 18.3596C70.1942 18.3583 70.3492 18.357 70.5089 18.3557C71.8205 18.3758 73.0449 18.8174 73.9761 19.7745C74.5523 20.6303 75.0188 21.3551 75.0215 22.4059C75.0223 22.557 75.023 22.708 75.0238 22.8636C75.0239 23.1132 75.0239 23.1132 75.024 23.3679C75.0247 23.5443 75.0253 23.7207 75.026 23.9024C75.0276 24.393 75.0285 24.8835 75.0292 25.3741C75.0301 25.9028 75.0318 26.4316 75.0334 26.9603C75.0369 28.2378 75.0391 29.5153 75.041 30.7929C75.0415 31.1537 75.0421 31.5146 75.0427 31.8755C75.0464 34.1167 75.0496 36.3579 75.0515 38.5991C75.0519 39.1183 75.0523 39.6374 75.0528 40.1566C75.0529 40.2857 75.053 40.4147 75.0531 40.5476C75.0549 42.6372 75.0598 44.7267 75.0659 46.8163C75.0721 48.9619 75.0756 51.1075 75.0763 53.2531C75.0768 54.4577 75.0786 55.6622 75.0834 56.8668C75.0875 57.8928 75.0891 58.9188 75.0875 59.9449C75.0867 60.4681 75.0871 60.9913 75.0908 61.5145C75.0947 62.0827 75.0929 62.6507 75.0905 63.2189C75.0926 63.383 75.0946 63.5472 75.0967 63.7163C75.0838 64.9967 74.6803 65.8328 74.0219 66.9059C73.0451 67.8562 72 68.2831 70.6582 68.2809C70.5424 68.2813 70.4266 68.2817 70.3072 68.2821C69.9159 68.2832 69.5246 68.2833 69.1332 68.2834C68.8511 68.284 68.569 68.2846 68.2869 68.2853C67.5091 68.2871 66.7313 68.2879 65.9535 68.2886C65.1156 68.2894 64.2777 68.2911 63.4398 68.2927C61.4149 68.2963 59.39 68.2985 57.3651 68.3003C56.7934 68.3009 56.2217 68.3015 55.6499 68.3021C52.1011 68.3058 48.5522 68.309 45.0034 68.3108C44.181 68.3112 43.3587 68.3117 42.5364 68.3121C42.4342 68.3122 42.3321 68.3122 42.2268 68.3123C38.915 68.3141 35.6031 68.3186 32.2913 68.3247C28.79 68.3312 25.2888 68.3349 21.7876 68.3357C19.8789 68.3362 17.9703 68.3379 16.0616 68.3428C14.4362 68.3469 12.8108 68.3485 11.1854 68.3468C10.356 68.3461 9.52667 68.3465 8.69728 68.3501C7.93778 68.3534 7.17836 68.3533 6.41886 68.3505C6.14431 68.3501 5.86976 68.3509 5.59522 68.3531C2.98084 68.3728 2.98084 68.3728 1.75929 67.5284C1.62635 67.4468 1.49342 67.3653 1.35646 67.2812C0.56142 66.4641 -0.0155945 65.46 -0.0185945 64.311C-0.0193378 64.16 -0.0200817 64.009 -0.0208476 63.8534C-0.0209205 63.687 -0.0209937 63.5206 -0.0210688 63.3491C-0.0217108 63.1727 -0.0223521 62.9963 -0.0230134 62.8146C-0.0246351 62.324 -0.0255944 61.8335 -0.0262634 61.3429C-0.0271358 60.8142 -0.0288364 60.2854 -0.0304074 59.7567C-0.0340001 58.4792 -0.036143 57.2017 -0.0380338 55.9241C-0.0385776 55.5633 -0.0391591 55.2024 -0.0397549 54.8415C-0.043452 52.6003 -0.0466815 50.3591 -0.0485034 48.1179C-0.0489325 47.5987 -0.0493672 47.0795 -0.0498087 46.5604C-0.049918 46.4313 -0.0500269 46.3023 -0.0501395 46.1693C-0.0519924 44.0798 -0.0568579 41.9902 -0.0629627 39.9007C-0.0691798 37.7551 -0.0726292 35.6095 -0.0733943 33.4639C-0.073894 32.2593 -0.075613 31.0548 -0.0804418 29.8502C-0.0845482 28.8242 -0.0861521 27.7982 -0.0845143 26.7721C-0.0837557 26.2489 -0.0841688 25.7257 -0.0878044 25.2025C-0.0917191 24.6343 -0.089915 24.0663 -0.0875876 23.4981C-0.0896211 23.334 -0.0916549 23.1698 -0.09375 23.0007C-0.0808476 21.7203 0.322608 20.8842 0.981089 19.8111C1.74903 19.0639 2.75303 18.4341 3.84383 18.4418C4.02015 18.4426 4.02015 18.4426 4.20003 18.4433C4.38314 18.4451 4.38314 18.4451 4.56996 18.447C4.69373 18.4477 4.81751 18.4483 4.94504 18.449C5.25031 18.4507 5.55558 18.4533 5.86085 18.4561C5.85235 18.2828 5.84386 18.1095 5.8351 17.9309C5.78848 16.5706 5.78043 15.5087 6.59327 14.3546C6.67485 14.2217 6.75642 14.0887 6.84046 13.9518C8.17139 12.6568 9.5378 12.5582 11.2892 12.5455C11.532 12.5431 11.7748 12.5391 12.0175 12.5335C13.446 12.5006 14.5994 12.4872 15.8218 13.3292C15.9547 13.4108 16.0877 13.4923 16.2246 13.5764C16.9718 14.3443 17.6016 15.3483 17.5939 16.4391C17.5935 16.5451 17.5932 16.6511 17.5928 16.7602C17.5915 16.8939 17.5901 17.0276 17.5888 17.1653C17.5857 17.5913 17.5827 18.0172 17.5796 18.4561C18.4981 18.4078 19.4165 18.3595 20.3628 18.3097C20.5654 17.8952 20.5654 17.8952 20.7722 17.4723C21.2219 16.5533 21.6743 15.6356 22.128 14.7185C22.4027 14.1632 22.6764 13.6074 22.9481 13.0506C23.211 12.512 23.4763 11.9745 23.7431 11.4378C23.8439 11.2342 23.9438 11.0302 24.0428 10.8258C25.3165 8.19962 26.6897 6.61642 29.7515 6.64263ZM27.8957 10.3479C27.8472 10.4367 27.7987 10.5255 27.7487 10.617C27.6908 10.7206 27.6328 10.8243 27.5731 10.9311C27.4845 11.103 27.4845 11.103 27.3941 11.2784C27.3287 11.4022 27.2634 11.5259 27.1961 11.6534C26.9774 12.0754 26.7648 12.5001 26.5535 12.9258C26.4765 13.0799 26.3995 13.2339 26.3202 13.3926C26.1588 13.7159 25.9976 14.0393 25.8368 14.3628C25.5893 14.8604 25.3409 15.3576 25.0924 15.8546C24.9354 16.1692 24.7785 16.4838 24.6217 16.7985C24.5471 16.9478 24.4725 17.0972 24.3957 17.2511C24.2936 17.4566 24.2936 17.4566 24.1895 17.6662C24.0992 17.8478 24.0992 17.8478 24.007 18.033C23.8681 18.281 23.8681 18.281 23.8784 18.4561C32.8696 18.4561 41.8609 18.4561 51.1245 18.4561C49.8872 15.8418 49.8872 15.8418 48.6204 13.2421C48.5058 13.0097 48.392 12.777 48.2788 12.5439C48.1114 12.1992 47.9417 11.8557 47.7714 11.5124C47.7216 11.4089 47.6719 11.3053 47.6206 11.1985C47.3147 10.5892 47.0273 10.1894 46.437 9.81357C46.0028 9.67559 45.6077 9.64814 45.1536 9.64651C44.9438 9.64526 44.9438 9.64526 44.7298 9.64398C44.5774 9.64381 44.425 9.64365 44.2679 9.64348C44.1066 9.64275 43.9453 9.64203 43.7791 9.64128C43.245 9.63914 42.711 9.63814 42.177 9.63733C41.8059 9.63649 41.4347 9.63564 41.0636 9.6348C40.3847 9.63346 39.7058 9.63253 39.0269 9.63209C38.0293 9.63143 37.0317 9.62886 36.0341 9.62462C35.1686 9.62107 34.3031 9.61994 33.4376 9.61969C33.0701 9.61924 32.7025 9.61807 32.335 9.61614C31.8206 9.61364 31.3063 9.61392 30.7919 9.61487C30.6404 9.61352 30.4888 9.61217 30.3327 9.61078C29.4156 9.61608 28.5691 9.64364 27.8957 10.3479ZM9.22999 15.9659C8.6743 16.8443 8.79054 17.3331 8.79054 18.4561C10.7241 18.4561 12.6577 18.4561 14.6499 18.4561C14.708 17.0887 14.708 17.0887 14.2105 15.9659C13.3783 15.5027 12.6605 15.4589 11.7202 15.4715C11.5937 15.4698 11.4672 15.4681 11.3368 15.4664C10.5262 15.4701 9.94207 15.5695 9.22999 15.9659ZM3.37062 21.8253C2.81586 22.6812 2.87369 23.5585 2.88825 24.553C2.88887 24.7141 2.88949 24.8752 2.89013 25.0412C2.89258 25.5531 2.89809 26.065 2.9037 26.5769C2.9059 26.9251 2.90791 27.2732 2.9097 27.6214C2.91454 28.4726 2.92188 29.3238 2.93116 30.1749C5.62045 30.2057 8.30969 30.229 10.9991 30.2432C12.2479 30.25 13.4967 30.2592 14.7454 30.2744C15.8342 30.2875 16.9229 30.296 18.0118 30.2989C18.5881 30.3007 19.1641 30.3047 19.7403 30.3143C20.2835 30.3233 20.8264 30.326 21.3696 30.324C21.6624 30.3245 21.9552 30.3316 22.2479 30.3389C23.2339 30.3288 23.7767 30.2431 24.4889 29.5315C24.6775 29.3078 24.8648 29.0829 25.0503 28.8565C29.1835 25.2195 34.5002 24.1381 39.8452 24.462C43.6202 24.8259 47.4646 26.5731 50.2456 29.1495C50.3108 29.2351 50.376 29.3207 50.4432 29.4089C50.8159 29.8745 51.1038 30.1383 51.6961 30.2679C52.2323 30.3012 52.7598 30.3017 53.2969 30.2913C53.5019 30.291 53.707 30.2912 53.9121 30.2918C54.4666 30.2921 55.0208 30.286 55.5753 30.2789C56.1555 30.2724 56.7357 30.2719 57.316 30.2706C58.4138 30.2675 59.5114 30.259 60.6092 30.2487C61.8593 30.2373 63.1095 30.2316 64.3597 30.2265C66.9304 30.2158 69.5011 30.1978 72.0718 30.1749C72.083 29.1506 72.0906 28.1263 72.0959 27.102C72.0981 26.7537 72.1011 26.4055 72.1049 26.0573C72.1103 25.5558 72.1128 25.0545 72.1147 24.553C72.117 24.3981 72.1192 24.2432 72.1216 24.0835C72.1218 23.225 72.1064 22.5568 71.6323 21.8253C70.8961 21.434 70.2837 21.3222 69.4496 21.3305C69.2806 21.3296 69.2806 21.3296 69.1082 21.3286C68.7311 21.327 68.354 21.3285 67.9769 21.33C67.7037 21.3295 67.4304 21.3288 67.1571 21.328C66.4065 21.3261 65.6559 21.327 64.9053 21.3284C64.0957 21.3294 63.2861 21.3278 62.4764 21.3266C60.8905 21.3247 59.3046 21.3251 57.7187 21.3264C56.4299 21.3274 55.1411 21.3275 53.8524 21.327C53.6691 21.327 53.4857 21.3269 53.2968 21.3268C52.9244 21.3267 52.552 21.3265 52.1796 21.3264C48.7861 21.3252 45.3925 21.3264 41.9989 21.3287C38.9011 21.3308 35.8032 21.3306 32.7054 21.3285C29.2248 21.3262 25.7443 21.3253 22.2637 21.3266C21.8927 21.3268 21.5216 21.3269 21.1506 21.327C20.968 21.3271 20.7854 21.3272 20.5973 21.3272C19.3099 21.3276 18.0225 21.327 16.7351 21.3259C15.1664 21.3247 13.5978 21.325 12.0292 21.3274C11.2286 21.3285 10.4281 21.329 9.62754 21.3275C8.89493 21.3262 8.16236 21.3269 7.42976 21.3293C7.16451 21.3298 6.89925 21.3295 6.634 21.3285C6.27375 21.3271 5.9136 21.3285 5.55336 21.3305C5.3985 21.329 5.3985 21.329 5.24051 21.3274C4.50556 21.3358 4.01008 21.4854 3.37062 21.8253ZM32.814 27.9776C32.6471 28.0307 32.4801 28.0838 32.3081 28.1384C28.2789 29.574 24.9921 32.4186 23.0858 36.2576C21.3501 39.9151 20.8403 44.2968 22.1206 48.1925C22.4109 49.0001 22.7641 49.7683 23.146 50.5362C23.25 50.7523 23.25 50.7523 23.356 50.9728C25.182 54.5576 28.6209 57.3689 32.4258 58.637C35.5509 59.6186 39.0521 59.7387 42.189 58.7394C42.3559 58.6863 42.5228 58.6332 42.6948 58.5786C46.724 57.143 50.0108 54.2984 51.9172 50.4594C53.6528 46.8018 54.1627 42.4201 52.8823 38.5245C52.5921 37.7169 52.2388 36.9487 51.8569 36.1808C51.753 35.9646 51.753 35.9646 51.6469 35.7442C49.8209 32.1594 46.382 29.3481 42.5771 28.08C39.452 27.0984 35.9509 26.9783 32.814 27.9776ZM2.93116 33.1046C2.93116 39.8722 2.93116 46.6397 2.93116 53.6124C8.97364 53.6124 15.0161 53.6124 21.2417 53.6124C21.0302 53.0837 20.8047 52.5867 20.5508 52.079C20.0364 51.0367 19.6167 49.9928 19.2825 48.8791C19.2476 48.7639 19.2127 48.6487 19.1768 48.53C18.6911 46.8399 18.5447 45.1867 18.5501 43.4317C18.5502 43.3289 18.5503 43.2261 18.5504 43.1202C18.5642 39.7571 19.3616 36.6639 21.0535 33.7449C21.265 33.4205 21.265 33.4205 21.2417 33.1046C15.1992 33.1046 9.15675 33.1046 2.93116 33.1046ZM53.7612 33.1046C53.9727 33.6333 54.1983 34.1303 54.4521 34.638C54.9665 35.6803 55.3862 36.7242 55.7205 37.8379C55.7554 37.9531 55.7902 38.0683 55.8262 38.1869C56.3118 39.8771 56.4583 41.5303 56.4529 43.2853C56.4528 43.3881 56.4526 43.4908 56.4525 43.5968C56.4387 46.9599 55.6414 50.0531 53.9495 52.9721C53.738 53.2965 53.738 53.2965 53.7612 53.6124C59.8037 53.6124 65.8462 53.6124 72.0718 53.6124C72.0718 46.8448 72.0718 40.0772 72.0718 33.1046C66.0293 33.1046 59.9868 33.1046 53.7612 33.1046ZM2.93116 56.5421C2.91999 57.5664 2.91231 58.5907 2.90702 59.615C2.90482 59.9632 2.90182 60.3115 2.89801 60.6597C2.89266 61.1611 2.89018 61.6625 2.88825 62.164C2.88598 62.3189 2.88371 62.4738 2.88137 62.6334C2.88118 63.492 2.89652 64.1602 3.37062 64.8917C4.10685 65.283 4.71928 65.3948 5.55336 65.3865C5.72235 65.3874 5.72235 65.3874 5.89476 65.3884C6.27188 65.39 6.64892 65.3885 7.02604 65.387C7.2993 65.3875 7.57256 65.3882 7.84582 65.389C8.59644 65.3909 9.34704 65.39 10.0977 65.3886C10.9073 65.3876 11.7169 65.3891 12.5265 65.3903C14.1124 65.3923 15.6984 65.3919 17.2843 65.3906C18.5731 65.3896 19.8618 65.3895 21.1506 65.39C21.4256 65.3901 21.4256 65.3901 21.7061 65.3902C22.0785 65.3903 22.4509 65.3904 22.8233 65.3906C26.2169 65.3918 29.6105 65.3905 33.004 65.3882C36.1019 65.3862 39.1997 65.3863 42.2976 65.3884C45.7781 65.3908 49.2587 65.3917 52.7392 65.3904C53.1103 65.3902 53.4813 65.3901 53.8524 65.39C54.0349 65.3899 54.2175 65.3898 54.4056 65.3898C55.693 65.3894 56.9804 65.39 58.2679 65.391C59.8365 65.3923 61.4051 65.3919 62.9738 65.3896C63.7743 65.3885 64.5749 65.388 65.3754 65.3895C66.108 65.3908 66.8406 65.39 67.5732 65.3877C67.8384 65.3872 68.1037 65.3875 68.369 65.3885C68.7292 65.3899 69.0893 65.3885 69.4496 65.3865C69.6044 65.388 69.6044 65.388 69.7624 65.3896C70.4974 65.3812 70.9929 65.2316 71.6323 64.8917C72.1871 64.0357 72.1293 63.1585 72.1147 62.164C72.1141 62.0029 72.1135 61.8418 72.1128 61.6758C72.1104 61.1638 72.1049 60.652 72.0993 60.1401C72.0971 59.7919 72.095 59.4437 72.0932 59.0956C72.0884 58.2444 72.0811 57.3932 72.0718 56.5421C69.3825 56.5113 66.6933 56.488 64.0038 56.4738C62.755 56.467 61.5063 56.4577 60.2575 56.4426C59.1687 56.4295 58.08 56.421 56.9911 56.418C56.4149 56.4163 55.8388 56.4123 55.2626 56.4027C54.7194 56.3937 54.1766 56.391 53.6334 56.393C53.3406 56.3924 53.0478 56.3854 52.7551 56.3781C51.769 56.3882 51.2263 56.4739 50.5141 57.1854C50.3255 57.4092 50.1382 57.6341 49.9526 57.8604C45.8195 61.4975 40.5027 62.5789 35.1577 62.255C31.3828 61.891 27.5384 60.1439 24.7573 57.5675C24.6595 57.4391 24.6595 57.4391 24.5597 57.3081C24.1871 56.8424 23.8991 56.5787 23.3068 56.4491C22.7707 56.4158 22.2432 56.4153 21.7061 56.4257C21.501 56.426 21.2959 56.4258 21.0908 56.4252C20.5364 56.4249 19.9821 56.4309 19.4277 56.4381C18.8475 56.4445 18.2672 56.4451 17.687 56.4463C16.5892 56.4495 15.4915 56.4579 14.3938 56.4682C13.1436 56.4797 11.8935 56.4853 10.6433 56.4905C8.07252 56.5012 5.50185 56.5192 2.93116 56.5421Z" fill="#222222"/>
<path d="M45.9953 33.1038C46.1522 33.2276 46.1522 33.2276 46.3123 33.3539C48.6145 35.2517 50.3883 38.4797 50.6828 41.4535C50.9331 45.3707 50.286 48.7609 47.7531 51.8538C47.6706 51.9585 47.588 52.0631 47.503 52.1708C45.6052 54.4731 42.3773 56.2469 39.4035 56.5413C35.4863 56.7917 32.096 56.1446 29.0031 53.6117C28.8462 53.4879 28.8462 53.4879 28.6861 53.3616C26.3838 51.4638 24.61 48.2358 24.3156 45.262C24.0653 41.3448 24.7123 37.9546 27.2453 34.8617C27.3278 34.757 27.4103 34.6524 27.4953 34.5447C32.0298 29.0438 40.6479 28.7247 45.9953 33.1038ZM30.0285 36.473C29.9312 36.5657 29.834 36.6584 29.7338 36.7539C28.0174 38.5012 27.359 40.9859 27.3368 43.3578C27.3626 46.1175 28.2563 48.4973 30.2282 50.4559C30.3556 50.5789 30.4831 50.7018 30.6144 50.8285C30.7071 50.9257 30.7998 51.0229 30.8954 51.1231C32.6426 52.8395 35.1273 53.498 37.4992 53.5201C40.2589 53.4944 42.6387 52.6006 44.5974 50.6288C44.7203 50.5013 44.8432 50.3738 44.9699 50.2425C45.0671 50.1498 45.1644 50.0571 45.2646 49.9616C46.9809 48.2144 47.6394 45.7296 47.6615 43.3578C47.6358 40.598 46.7421 38.2182 44.7702 36.2596C44.6427 36.1366 44.5153 36.0137 44.3839 35.887C44.2912 35.7898 44.1985 35.6926 44.103 35.5924C42.3558 33.876 39.871 33.2175 37.4992 33.1954C34.4748 33.2236 32.1135 34.3111 30.0285 36.473Z" fill="#222222"/>
<path d="M37.1521 35.9709C37.3383 35.965 37.5245 35.9592 37.7163 35.9531C38.3669 36.0563 38.5747 36.2445 38.9648 36.7674C39.0621 37.1336 39.0621 37.1336 39.0564 37.4998C39.0583 37.6206 39.0602 37.7415 39.0621 37.866C38.9187 38.4061 38.6689 38.6231 38.2324 38.9646C37.7317 39.1014 37.7317 39.1014 37.1796 39.1752C36.0234 39.3667 35.0709 39.6905 34.2962 40.6074C33.7168 41.4426 33.3969 42.2004 33.2794 43.2127C33.1879 43.7714 33.1132 44.079 32.8125 44.5677C32.2748 44.8813 31.8876 44.9117 31.2744 44.9213C30.7331 44.7775 30.5135 44.5325 30.1758 44.0916C29.8263 42.2312 30.4498 40.4375 31.489 38.9063C32.8772 37.1318 34.8825 36.0102 37.1521 35.9709Z" fill="#222222"/>
<path d="M33.3855 12.5017C33.4844 12.5004 33.5834 12.4992 33.6853 12.4978C34.0108 12.4946 34.336 12.4967 34.6615 12.4992C34.8886 12.4987 35.1157 12.498 35.3428 12.4971C35.8181 12.496 36.2933 12.4976 36.7686 12.501C37.377 12.5052 37.9852 12.5028 38.5935 12.4984C39.0623 12.4958 39.531 12.4966 39.9998 12.4985C40.224 12.499 40.4483 12.4984 40.6725 12.4967C40.9864 12.4948 41.2999 12.4977 41.6138 12.5017C41.7921 12.5023 41.9704 12.5029 42.1541 12.5035C42.7587 12.6225 42.9774 12.8557 43.359 13.3289C43.4563 13.6951 43.4563 13.6951 43.4505 14.0613C43.4534 14.2426 43.4534 14.2426 43.4563 14.4276C43.3143 14.9621 43.0498 15.1771 42.6266 15.5262C42.1541 15.6192 42.1541 15.6192 41.6138 15.621C41.4654 15.6229 41.4654 15.6229 41.3139 15.6249C40.9884 15.6281 40.6632 15.6259 40.3378 15.6235C40.1107 15.624 39.8836 15.6247 39.6565 15.6256C39.1811 15.6267 38.7059 15.6251 38.2306 15.6217C37.6222 15.6175 37.0141 15.6199 36.4057 15.6243C35.9369 15.6269 35.4682 15.6261 34.9995 15.6242C34.7752 15.6237 34.551 15.6243 34.3267 15.626C34.0128 15.6279 33.6993 15.625 33.3855 15.621C33.2071 15.6204 33.0288 15.6198 32.8451 15.6192C32.2406 15.5002 32.0219 15.267 31.6402 14.7938C31.543 14.4276 31.543 14.4276 31.5487 14.0613C31.5468 13.9405 31.5449 13.8196 31.543 13.6951C31.7967 12.7398 32.4779 12.5047 33.3855 12.5017Z" fill="#222222"/>
<path d="M65.0204 24.2177C65.213 24.2168 65.4056 24.2158 65.604 24.2148C65.7534 24.2171 65.7534 24.2171 65.9059 24.2195C66.2099 24.2234 66.5131 24.2195 66.8171 24.2148C67.106 24.2163 67.106 24.2163 67.4007 24.2177C67.5764 24.2185 67.752 24.2194 67.9329 24.2202C68.5384 24.341 68.7574 24.5734 69.1402 25.0474C69.2375 25.4136 69.2375 25.4136 69.2318 25.7798C69.2337 25.9007 69.2356 26.0215 69.2375 26.146C69.0956 26.6803 68.8306 26.8955 68.4078 27.2447C67.9329 27.3394 67.9329 27.3394 67.4007 27.3419C67.2081 27.3429 67.0155 27.3438 66.8171 27.3448C66.7175 27.3433 66.6179 27.3417 66.5153 27.3402C66.2112 27.3362 65.908 27.3401 65.604 27.3448C65.3151 27.3434 65.3151 27.3434 65.0204 27.3419C64.757 27.3407 64.757 27.3407 64.4882 27.3394C63.8827 27.2186 63.6637 26.9863 63.2809 26.5122C63.1836 26.146 63.1836 26.146 63.1893 25.7798C63.1874 25.659 63.1855 25.5381 63.1836 25.4136C63.4361 24.4631 64.1157 24.222 65.0204 24.2177Z" fill="#222222"/>
<path d="M59.6207 24.3179C60.0784 24.5926 60.0784 24.5926 60.3531 25.0504C60.4979 25.7866 60.4669 26.3255 60.0784 26.973C59.431 27.3614 58.8921 27.3925 58.1558 27.2476C57.6981 26.973 57.6981 26.973 57.4234 26.5152C57.2786 25.7789 57.3096 25.24 57.6981 24.5926C58.3455 24.2041 58.8844 24.1731 59.6207 24.3179Z" fill="#222222"/>
</g>
<defs>
<clipPath id="clip0_329_1901">
<rect width="75" height="75" fill="white"/>
</clipPath>
</defs>
</svg>
