<svg width="73" height="72" viewBox="0 0 73 72" fill="none" xmlns="http://www.w3.org/2000/svg">
<rect x="0.25" width="72" height="72" rx="36" fill="#98A9D4"/>
<path d="M44.4561 18.0186C43.9375 18.2451 43.7441 18.8467 44.0342 19.292C44.3154 19.7139 44.377 19.7295 46.8643 19.7686L49.1758 19.8076L48.2002 20.8233C41.2129 28.0889 32.0547 33.5498 21.833 36.5264C20.2773 36.9795 20.0312 37.1436 20.0312 37.7373C20.0312 38.0654 20.0752 38.1592 20.2949 38.3623C20.752 38.7686 20.998 38.7529 22.8086 38.2061C33.1885 35.1045 42.5752 29.5108 49.5625 22.2842L50.2656 21.5576L50.3096 23.2217C50.3623 25.0576 50.3799 25.1358 50.916 25.3623C51.2676 25.5108 51.7422 25.4639 51.9971 25.2608C52.4102 24.9248 52.4189 24.8779 52.4189 21.6592C52.4189 18.6279 52.4189 18.6201 52.2168 18.3545C51.8652 17.8936 51.9004 17.8936 48.1562 17.8936C45.2822 17.8936 44.6846 17.917 44.4561 18.0186Z" fill="white"/>
<path d="M44.4141 30.8086C44.2471 30.9102 44.0713 31.1055 44.0098 31.2539C43.9307 31.457 43.9043 34.0742 43.9043 41.8945L43.8955 52.2695H42.1816H40.4678V44.0195V35.7695L40.1689 35.5039L39.8701 35.2383H36.249H32.6279L32.3291 35.5039L32.0303 35.7695V44.0195V52.2695H30.3164H28.6025L28.5938 46.4648C28.5938 42.1914 28.5674 40.5977 28.4883 40.3945C28.4268 40.2461 28.251 40.0508 28.084 39.9492C27.7852 39.7695 27.7852 39.7695 24.3486 39.7695C20.5957 39.7695 20.6309 39.7695 20.2793 40.2305L20.0771 40.4961V46.3789V52.2617L17.2207 52.2852L14.3643 52.3086L14.083 52.5664C13.8369 52.7852 13.793 52.8711 13.793 53.207C13.793 53.543 13.8369 53.6289 14.083 53.8477L14.3643 54.1055H36.249H58.1338L58.415 53.8477C58.6611 53.6289 58.7051 53.543 58.7051 53.207C58.7051 52.8711 58.6611 52.7852 58.415 52.5664L58.1338 52.3086L55.2773 52.2852L52.4209 52.2617V41.8086V31.3555L52.2188 31.0898C51.8672 30.6289 51.9023 30.6289 48.1494 30.6289C44.7129 30.6289 44.7129 30.6289 44.4141 30.8086ZM50.3115 42.3867V52.2695H48.1582H46.0049V42.3867V32.5039H48.1582H50.3115V42.3867ZM38.3584 44.6914V52.2695H36.249H34.1396V44.6914V37.1133H36.249H38.3584V44.6914ZM26.4932 46.957V52.2695H24.3398H22.1865V46.957V41.6445H24.3398H26.4932V46.957Z" fill="white"/>
</svg>
