<svg width="52" height="50" viewBox="0 0 52 50" fill="none" xmlns="http://www.w3.org/2000/svg">
<g clip-path="url(#clip0_331_2638)">
<path d="M25.0273 4.50417C31.7023 4.50417 32.494 4.52917 35.1294 4.65C37.8544 4.775 40.6607 5.39583 42.6461 7.38125C44.6503 9.38542 45.2523 12.1646 45.3773 14.8979C45.4982 17.5333 45.5232 18.325 45.5232 25C45.5232 31.675 45.4982 32.4667 45.3773 35.1021C45.2544 37.8125 44.619 40.6458 42.6461 42.6188C40.6419 44.6229 37.8648 45.225 35.1294 45.35C32.494 45.4708 31.7023 45.4958 25.0273 45.4958C18.3523 45.4958 17.5607 45.4708 14.9253 45.35C12.2357 45.2271 9.36484 44.5771 7.40859 42.6188C5.41484 40.625 4.80234 37.8188 4.67734 35.1021C4.55651 32.4667 4.53151 31.675 4.53151 25C4.53151 18.325 4.55651 17.5333 4.67734 14.8979C4.80026 12.1979 5.44193 9.34792 7.40859 7.38125C9.40859 5.38125 12.1982 4.775 14.9253 4.65C17.5607 4.52917 18.3523 4.50417 25.0273 4.50417ZM25.0273 0C18.2378 0 17.3857 0.0291667 14.719 0.15C10.8544 0.327083 7.01693 1.40208 4.22318 4.19583C1.41901 7 0.354427 10.8292 0.177344 14.6917C0.0565104 17.3583 0.0273438 18.2104 0.0273438 25C0.0273438 31.7896 0.0565104 32.6417 0.177344 35.3083C0.354427 39.1687 1.43359 43.0167 4.22318 45.8042C7.02526 48.6062 10.8607 49.6729 14.719 49.85C17.3857 49.9708 18.2378 50 25.0273 50C31.8169 50 32.669 49.9708 35.3357 49.85C39.1982 49.6729 43.0398 48.5958 45.8315 45.8042C48.6378 42.9979 49.7003 39.1708 49.8773 35.3083C49.9982 32.6417 50.0273 31.7896 50.0273 25C50.0273 18.2104 49.9982 17.3583 49.8773 14.6917C49.7003 10.8271 48.6232 6.9875 45.8315 4.19583C43.0336 1.39792 39.1878 0.325 35.3357 0.15C32.669 0.0291667 31.8169 0 25.0273 0Z" fill="#47667B"/>
<path d="M25.025 12.1602C17.9354 12.1602 12.1875 17.9081 12.1875 24.9977C12.1875 32.0872 17.9354 37.8352 25.025 37.8352C32.1146 37.8352 37.8625 32.0872 37.8625 24.9977C37.8625 17.9081 32.1146 12.1602 25.025 12.1602ZM25.025 33.331C20.4229 33.331 16.6917 29.5997 16.6917 24.9977C16.6917 20.3956 20.4229 16.6643 25.025 16.6643C29.6271 16.6643 33.3583 20.3956 33.3583 24.9977C33.3583 29.5997 29.6271 33.331 25.025 33.331Z" fill="#47667B"/>
<path d="M38.3711 14.6563C40.0279 14.6563 41.3711 13.3131 41.3711 11.6563C41.3711 9.9994 40.0279 8.65625 38.3711 8.65625C36.7142 8.65625 35.3711 9.9994 35.3711 11.6563C35.3711 13.3131 36.7142 14.6563 38.3711 14.6563Z" fill="#47667B"/>
</g>
<defs>
<clipPath id="clip0_331_2638">
<rect width="51.8462" height="50" fill="white" transform="translate(0.0273438)"/>
</clipPath>
</defs>
</svg>
