<svg width="45" height="40" viewBox="0 0 45 40" fill="none" xmlns="http://www.w3.org/2000/svg">
<g clip-path="url(#clip0_0_176)">
<path d="M20.462 -0.029394C20.5373 -0.0292996 20.6126 -0.0292052 20.6902 -0.0291079C25.25 -0.0136532 29.4357 1.56402 32.6624 4.41885C32.7657 4.51311 32.7657 4.51311 32.8711 4.60928C33.1614 4.55327 33.1614 4.55327 33.2772 4.29128C33.4095 3.99038 33.4589 3.68928 33.4918 3.36904C33.4986 3.31216 33.5054 3.25527 33.5124 3.19666C33.534 3.01656 33.5543 2.83639 33.5742 2.65615C33.6006 2.41841 33.6282 2.18082 33.6566 1.94326C33.6621 1.8897 33.6676 1.83613 33.6733 1.78095C33.7432 1.19847 33.9423 0.776523 34.4531 0.390528C34.9051 0.256616 35.3978 0.242037 35.8429 0.400293C36.3067 0.753674 36.5489 1.10958 36.752 1.61154C36.8007 1.72572 36.8493 1.83991 36.8979 1.9541C36.9723 2.13211 37.0462 2.31025 37.12 2.48844C37.1923 2.66197 37.266 2.83499 37.3398 3.00802C37.3611 3.06093 37.3825 3.11383 37.4045 3.16834C37.5786 3.57536 37.8122 3.83327 38.2132 4.08104C38.5195 4.17449 38.8345 4.20078 39.1546 4.233C39.3032 4.24921 39.4519 4.26543 39.6006 4.28167C39.8339 4.30646 40.0672 4.33097 40.3006 4.35516C40.5266 4.3788 40.7525 4.4035 40.9783 4.42831C41.0476 4.43515 41.1168 4.442 41.1881 4.44905C41.7067 4.50667 42.1121 4.60861 42.4786 4.96084C42.6693 5.21185 42.7324 5.42007 42.7478 5.71768C42.7521 5.77357 42.7564 5.82946 42.7609 5.88705C42.6871 6.21845 42.5291 6.46744 42.2754 6.71865C42.0048 6.87539 41.7201 6.9746 41.4185 7.0751C41.2969 7.11838 41.2969 7.11838 41.1729 7.16253C41.0067 7.22157 40.8402 7.27983 40.6734 7.33728C40.3734 7.44131 40.0764 7.55123 39.7794 7.66163C39.0204 7.94352 39.0204 7.94352 38.6719 8.04678C38.3548 8.47787 38.291 9.02266 38.2355 9.52413C38.2213 9.64127 38.207 9.75841 38.1928 9.87554C38.1712 10.0577 38.1499 10.2399 38.1292 10.4222C38.1088 10.5998 38.0871 10.7773 38.0652 10.9548C38.0594 11.0088 38.0537 11.0627 38.0477 11.1183C38.0038 11.4683 37.8923 11.7232 37.7051 12.0312C37.5734 12.328 37.6608 12.515 37.7816 12.8084C37.8198 12.9024 37.858 12.9964 37.8974 13.0933C37.9403 13.1962 37.9832 13.2991 38.0261 13.402C38.0699 13.5091 38.1137 13.6163 38.1574 13.7235C38.2732 14.0071 38.3901 14.2904 38.5073 14.5736C38.7143 15.0746 38.9195 15.5762 39.1247 16.0778C39.1581 16.1592 39.1581 16.1592 39.1921 16.2422C39.4848 16.9574 39.7713 17.674 40.0435 18.3956C40.0712 18.4686 40.0989 18.5416 40.1274 18.6168C40.4469 19.4752 40.717 20.3499 40.6824 21.2599C40.661 22.1781 40.7331 22.8677 41.4345 23.5768C41.8316 23.937 42.2468 24.2747 42.6709 24.6093C42.8433 24.751 43.014 24.8942 43.1849 25.0374C43.5574 25.3489 43.9342 25.6555 44.3159 25.9581C44.5791 26.1857 44.6753 26.3495 44.6814 26.6698C44.6754 26.9418 44.6523 27.0257 44.4836 27.2655C44.1918 27.5097 43.957 27.5529 43.5631 27.5441C43.2663 27.4878 43.1445 27.3844 42.9249 27.1996C42.8481 27.1354 42.7713 27.0712 42.6922 27.0051C42.6127 26.9363 42.5331 26.8676 42.4512 26.7968C42.374 26.7301 42.2969 26.6635 42.2174 26.5948C41.9647 26.3739 41.7141 26.1513 41.4639 25.9281C41.3685 25.8433 41.2732 25.7585 41.1778 25.6738C40.9216 25.4461 40.6657 25.2181 40.4098 24.9902C40.1414 24.751 39.8727 24.5121 39.604 24.2732C39.0964 23.8219 38.5891 23.3703 38.0819 22.9186C37.504 22.404 36.9257 21.8896 36.3475 21.3752C35.1591 20.3181 33.9711 19.2606 32.7832 18.203C32.4999 18.3228 32.3106 18.4485 32.0897 18.648C32.0274 18.7039 31.9651 18.7598 31.9009 18.8173C31.8367 18.8757 31.7726 18.934 31.7065 18.994C31.6411 19.053 31.5756 19.1119 31.5081 19.1726C31.3468 19.3178 31.1859 19.4634 31.0254 19.6093C31.1702 19.9427 31.4515 20.1632 31.7328 20.4079C31.7879 20.4564 31.8429 20.5049 31.8997 20.5549C32.0846 20.7177 32.2701 20.8799 32.4555 21.0421C32.5881 21.1586 32.7206 21.2752 32.8531 21.3917C33.1386 21.6429 33.4243 21.8938 33.7101 22.1446C34.1621 22.5412 34.613 22.9388 35.0637 23.3366C35.1397 23.4037 35.2157 23.4708 35.2941 23.54C35.4496 23.6772 35.6051 23.8144 35.7606 23.9517C36.81 24.8778 37.8601 25.8031 38.9128 26.7262C39.6228 27.3488 40.3312 27.9727 41.0378 28.5983C41.4119 28.9293 41.7867 29.2596 42.1634 29.5882C42.5178 29.8973 42.8701 30.2081 43.2208 30.5204C43.3499 30.6347 43.4797 30.7483 43.6103 30.8611C43.7887 31.0154 43.9641 31.1719 44.1391 31.3293C44.1913 31.3733 44.2435 31.4173 44.2973 31.4627C44.5864 31.7287 44.6812 31.9107 44.6913 32.2847C44.6801 32.5665 44.653 32.65 44.4727 32.8954C44.1585 33.0758 43.8822 33.1787 43.5059 33.1249C43.1481 32.9302 42.8509 32.7182 42.5556 32.4542C42.4764 32.3838 42.3973 32.3135 42.3158 32.241C42.2311 32.1649 42.1465 32.0889 42.0618 32.0128C41.974 31.9344 41.886 31.8561 41.7981 31.7777C41.568 31.5726 41.3384 31.367 41.1089 31.1612C40.8741 30.9509 40.6388 30.7411 40.4036 30.5312C39.9431 30.1202 39.4831 29.7086 39.0234 29.2968C38.7607 29.5842 38.5341 29.8752 38.3148 30.1903C36.9076 32.159 34.9925 33.7209 32.6953 34.8437C32.6425 34.8701 32.5898 34.8965 32.5354 34.9238C30.6432 35.8631 28.5161 36.3328 26.3672 36.4843C26.3686 36.5694 26.37 36.6545 26.3714 36.7422C26.3762 37.0593 26.3792 37.3764 26.3817 37.6935C26.383 37.8305 26.3848 37.9675 26.3871 38.1045C26.3903 38.302 26.3918 38.4994 26.3929 38.6968C26.3943 38.7576 26.3957 38.8184 26.3971 38.8811C26.3972 39.259 26.3409 39.5172 26.1035 39.8437C25.8184 40.0126 25.7399 40.0197 25.4107 40.0208C25.3222 40.0215 25.2338 40.0221 25.1426 40.0228C25.0456 40.0227 24.9486 40.0227 24.8487 40.0226C24.7465 40.0231 24.6443 40.0237 24.539 40.0242C24.2001 40.0257 23.8613 40.026 23.5224 40.0261C23.3468 40.0265 23.1711 40.0269 22.9955 40.0273C22.443 40.0286 21.8905 40.029 21.338 40.0289C20.7683 40.0288 20.1986 40.0304 19.6289 40.0329C19.1396 40.0349 18.6503 40.0358 18.1611 40.0357C17.8689 40.0356 17.5768 40.0362 17.2846 40.0377C16.9587 40.0392 16.6328 40.0388 16.3068 40.0379C16.2102 40.0387 16.1136 40.0396 16.014 40.0405C15.3597 40.0357 15.3597 40.0357 15.0154 39.851C14.706 39.5382 14.7543 39.2473 14.757 38.8494C14.7572 38.7483 14.7572 38.7483 14.7574 38.6451C14.7579 38.4294 14.759 38.2137 14.7601 37.998C14.7606 37.8519 14.761 37.7058 14.7613 37.5597C14.7623 37.2012 14.7638 36.8428 14.7656 36.4843C14.6625 36.4749 14.5593 36.4656 14.453 36.4559C13.7056 36.3864 12.9662 36.3145 12.2333 36.162C12.1531 36.1454 12.073 36.1288 11.9904 36.1117C8.22034 35.29 4.77191 33.0824 2.70427 30.1594C2.46095 29.801 2.23749 29.4343 2.02149 29.0624C1.99056 29.0094 1.95963 28.9565 1.92776 28.9019C-0.027828 25.5079 -0.1408 21.6384 1.14258 18.0468C1.40779 17.3447 1.69432 16.6492 1.98054 15.9537C2.08785 15.6927 2.19459 15.4316 2.30143 15.1704C2.43227 14.8507 2.56323 14.5311 2.69457 14.2116C2.93573 13.6248 3.1751 13.0376 3.41206 12.4495C4.57793 9.55649 5.75624 6.87394 8.17383 4.60928C8.25325 4.53455 8.33267 4.45983 8.4145 4.38284C10.8434 2.13898 14.1512 0.705838 17.5781 0.156153C17.6683 0.141663 17.7584 0.127174 17.8513 0.112246C18.7226 -0.0134592 19.5817 -0.0314422 20.462 -0.029394ZM11.5061 4.74905C9.76457 6.42176 8.87489 8.73253 8.94322 10.9978C9.0734 13.447 10.2493 15.6051 12.2237 17.2982C13.0043 17.9114 13.8667 18.3779 14.7852 18.8107C14.85 18.8414 14.9148 18.8721 14.9816 18.9037C15.0686 18.9441 15.0686 18.9441 15.1573 18.9853C15.293 19.0624 15.293 19.0624 15.3809 19.2187C15.4117 19.6364 15.4199 19.8928 15.1172 20.2343C14.793 20.3783 14.4103 20.3595 14.0689 20.2661C13.8972 20.2001 13.7331 20.1271 13.5681 20.0487C13.5078 20.0209 13.4474 19.993 13.3853 19.9643C12.3975 19.495 11.5291 18.8915 10.7227 18.203C10.6475 18.1403 10.5724 18.0775 10.495 18.0129C10.0026 17.591 9.59822 17.152 9.22852 16.6405C8.21854 17.9872 9.04275 21.3626 9.35943 22.8485C10.3141 26.9775 12.9379 31.4002 16.8661 33.9062C18.3671 34.7665 19.9862 35.115 21.7584 34.829C23.1741 34.5509 24.2792 33.9351 25.3125 33.0468C25.3652 33.0019 25.418 32.9571 25.4723 32.9108C26.2353 32.2594 26.9436 31.5955 27.5722 30.8385C27.6868 30.7015 27.8043 30.5667 27.9224 30.432C29.5786 28.5649 29.5786 28.5649 30.4102 26.4062C29.0748 25.8731 27.7291 25.3641 26.3782 24.8632C23.8756 23.9342 23.8756 23.9342 22.8783 23.5577C22.7442 23.5071 22.6101 23.4568 22.4759 23.4068C22.2914 23.3379 22.1073 23.2683 21.9232 23.1985C21.8198 23.1595 21.7163 23.1206 21.6098 23.0805C21.3849 22.9808 21.2455 22.9096 21.0938 22.7343C21.0388 22.4708 21.0484 22.2176 21.0938 21.953C21.2594 21.7517 21.3744 21.672 21.6211 21.5624C22.1917 21.5618 22.672 21.7092 23.1856 21.9146C23.294 21.9565 23.294 21.9565 23.4045 21.9992C23.5594 22.0592 23.7141 22.1196 23.8686 22.1804C24.1969 22.3097 24.5263 22.4369 24.8556 22.5643C25.0245 22.6296 25.1933 22.695 25.3621 22.7605C26.2909 23.1208 27.2264 23.4662 28.1631 23.8099C28.2897 23.8564 28.4163 23.9029 28.5428 23.9495C28.6039 23.972 28.665 23.9944 28.7279 24.0176C29.1398 24.1697 29.5487 24.3273 29.9566 24.4878C30.0626 24.5291 30.1686 24.5704 30.2778 24.613C30.4734 24.6895 30.6684 24.7671 30.8628 24.8459C30.9481 24.8791 31.0333 24.9123 31.1212 24.9465C31.2311 24.9905 31.2311 24.9905 31.3433 25.0355C31.6163 25.0909 31.7473 25.035 31.9922 24.9218C32.1602 24.8034 32.1602 24.8034 32.3053 24.663C32.3572 24.6149 32.4091 24.5667 32.4625 24.5171C32.6373 24.3455 32.8017 24.1688 32.959 23.9843C32.8379 23.7424 32.6989 23.5775 32.4885 23.391C32.4276 23.3367 32.3667 23.2823 32.304 23.2263C32.2372 23.1676 32.1705 23.1088 32.1017 23.0482C31.9962 22.9544 31.9962 22.9544 31.8886 22.8587C31.656 22.6521 31.4227 22.446 31.1895 22.2399C31.0281 22.0967 30.8668 21.9536 30.7055 21.8103C30.3242 21.472 29.9425 21.1339 29.5607 20.796C29.1259 20.4113 28.6916 20.0261 28.2573 19.6409C27.3641 18.8486 26.4704 18.0569 25.5762 17.2655C25.3396 17.581 25.2542 17.9263 25.1472 18.2895C25.0269 18.6605 24.9056 18.8512 24.5215 19.0624C24.1151 19.1828 23.6991 19.2098 23.2876 19.0871C22.8909 18.9063 22.7563 18.7148 22.5879 18.3593C22.5021 18.103 22.4338 17.8439 22.3661 17.5835C22.3249 17.4312 22.2837 17.2789 22.2425 17.1267C22.1788 16.8885 22.1155 16.6502 22.0528 16.4118C21.9917 16.1804 21.9291 15.9493 21.8662 15.7183C21.8482 15.6478 21.8301 15.5773 21.8115 15.5047C21.6245 14.8237 21.3117 14.3078 20.6543 13.9062C20.3503 13.7889 20.3503 13.7889 20.0181 13.7084C19.9272 13.6845 19.9272 13.6845 19.8344 13.6601C19.0445 13.4564 18.2428 13.2873 17.4421 13.1208C17.2404 13.0787 17.0394 13.0348 16.8383 12.9906C16.7474 12.9724 16.7474 12.9724 16.6546 12.9538C16.1668 12.8444 15.8856 12.6375 15.6191 12.2622C15.4659 11.8873 15.4914 11.4704 15.6775 11.1083C16.0816 10.5834 17.0218 10.4794 17.678 10.342C17.8446 10.3057 18.0112 10.2693 18.1777 10.2329C18.4362 10.1771 18.6948 10.1216 18.9536 10.0669C19.2062 10.0132 19.4584 9.95795 19.7105 9.90255C19.7872 9.88675 19.864 9.87095 19.943 9.85467C20.5538 9.719 20.9698 9.51773 21.3801 9.08985C21.5863 8.73721 21.6839 8.38372 21.7859 7.99825C21.808 7.91871 21.8301 7.83917 21.8528 7.75722C21.923 7.50401 21.9919 7.25054 22.0606 6.99697C22.151 6.66317 22.2428 6.32967 22.3352 5.9963C22.3554 5.92028 22.3755 5.84425 22.3963 5.76592C22.5371 5.258 22.6776 4.77707 23.1757 4.45791C23.6611 4.31949 24.1217 4.29126 24.5929 4.48721C25.1774 4.84309 25.3043 5.60063 25.4581 6.17758C25.4994 6.32625 25.5407 6.47492 25.582 6.62359C25.6454 6.85495 25.7084 7.08638 25.7711 7.31788C25.8325 7.54345 25.8952 7.76872 25.958 7.99398C25.9762 8.06284 25.9944 8.1317 26.0132 8.20264C26.1866 8.82172 26.4755 9.23308 27.0703 9.60928C27.588 9.80026 28.1092 9.92717 28.6534 10.0435C28.8213 10.0805 28.9893 10.1175 29.1572 10.1545C29.4192 10.2118 29.6813 10.2688 29.9435 10.3252C30.1985 10.3801 30.4532 10.4364 30.7078 10.4928C30.8251 10.5174 30.8251 10.5174 30.9448 10.5426C31.4344 10.6522 31.8108 10.7762 32.1055 11.1651C32.2685 11.5902 32.234 12.0471 32.0416 12.456C31.4912 12.9453 30.7079 13.0567 29.9707 13.203C30.391 13.6524 30.8416 14.0664 31.3069 14.4789C31.3865 14.5499 31.4662 14.6208 31.5482 14.6939C31.765 14.887 31.9821 15.0798 32.1992 15.2725C32.4267 15.4745 32.654 15.6768 32.8814 15.879C33.2625 16.2179 33.6438 16.5567 34.0252 16.8954C34.4667 17.2873 34.9078 17.6795 35.3487 18.0719C35.7276 18.4091 36.1068 18.7462 36.486 19.0831C36.7124 19.2842 36.9388 19.4854 37.1649 19.6867C37.4164 19.9104 37.6681 20.1339 37.9199 20.3572C38.0329 20.4579 38.0329 20.4579 38.1481 20.5605C38.2162 20.6209 38.2844 20.6812 38.3545 20.7434C38.4438 20.8227 38.4438 20.8227 38.5349 20.9036C38.6516 21.0243 38.6516 21.0243 38.7598 21.0155C38.6858 19.6795 38.112 18.401 37.5842 17.163C37.5201 17.011 37.4561 16.859 37.3922 16.707C37.2522 16.3743 37.1118 16.0417 36.9713 15.7092C36.7151 15.1022 36.4621 14.4941 36.2092 13.886C36.1638 13.7769 36.1184 13.6678 36.073 13.5587C35.7106 12.6876 35.7106 12.6876 35.5353 12.2659C35.2643 11.6141 34.9918 10.9628 34.7168 10.3124C34.6883 10.2448 34.6598 10.1771 34.6304 10.1075C34.5598 9.94095 34.4881 9.77487 34.4157 9.60897C34.3794 9.52523 34.3431 9.44148 34.3057 9.3552C34.0717 8.92304 33.8173 8.68791 33.3106 8.51553C33.0511 8.46748 32.7913 8.4419 32.5278 8.41818C32.3757 8.40258 32.2236 8.38696 32.0715 8.37133C31.8338 8.34797 31.596 8.32503 31.3581 8.3025C31.1271 8.28028 30.8964 8.25653 30.6656 8.23263C30.5597 8.22334 30.5597 8.22334 30.4516 8.21385C30.0041 8.16674 29.7122 8.07504 29.3555 7.8124C29.1187 7.44063 29.0397 7.14345 29.0918 6.71865C29.2638 6.30829 29.5072 6.06185 29.9542 5.86853C30.1287 5.80342 30.3043 5.74259 30.4816 5.6835C30.5425 5.66255 30.6034 5.6416 30.6661 5.62002C30.8149 5.56894 30.9641 5.51871 31.1133 5.46865C30.851 5.15266 30.5549 4.91096 30.2069 4.67275C30.1531 4.63571 30.0994 4.59867 30.044 4.56051C27.9862 3.1603 25.7588 2.23048 23.2031 1.79678C23.0756 1.77496 23.0756 1.77496 22.9455 1.7527C22.1626 1.63157 21.3912 1.61246 20.5994 1.61611C20.5336 1.61628 20.4677 1.61645 20.3999 1.61662C17.0275 1.63045 13.8734 2.55318 11.5061 4.74905ZM35.4199 3.4374C35.4103 3.48474 35.4007 3.53207 35.3907 3.58084C35.1753 4.59307 34.8903 5.4377 33.9697 6.12173C33.5214 6.38324 33.0184 6.54862 32.5195 6.71865C32.5195 6.74443 32.5195 6.77022 32.5195 6.79678C32.6088 6.80826 32.6981 6.81974 32.7901 6.83157C33.8538 6.98031 34.8118 7.21348 35.5233 7.98513C35.8437 8.42066 36.0719 8.8965 36.2988 9.3749C36.3278 9.3749 36.3568 9.3749 36.3867 9.3749C36.3953 9.29847 36.4039 9.22203 36.4128 9.14327C36.5326 8.20953 36.7717 7.37673 37.6141 6.74551C38.13 6.42047 38.699 6.21543 39.2871 6.01553C39.2871 5.98975 39.2871 5.96397 39.2871 5.9374C39.1841 5.92592 39.0811 5.91444 38.975 5.90261C37.8517 5.76538 36.9482 5.55101 36.1927 4.74386C35.8919 4.33774 35.6997 3.89149 35.5078 3.4374C35.4788 3.4374 35.4498 3.4374 35.4199 3.4374ZM23.8184 7.34365C23.8047 7.39636 23.791 7.44907 23.7769 7.50337C23.7131 7.74661 23.6477 7.98945 23.5822 8.23232C23.5607 8.31521 23.5392 8.39809 23.5171 8.48348C23.2601 9.42623 22.8425 10.2476 21.9438 10.8373C21.223 11.2225 20.4084 11.3845 19.5996 11.5624C19.4663 11.5921 19.333 11.6218 19.1996 11.6515C19.0996 11.6737 18.9996 11.6958 18.8965 11.7187C19.1522 11.8702 19.3069 11.9178 19.6003 11.979C19.7305 12.0073 19.7305 12.0073 19.8633 12.0362C20.0442 12.0747 20.2253 12.1127 20.4064 12.1503C21.4274 12.3743 22.3058 12.7743 22.8735 13.5839C23.2556 14.162 23.4403 14.7835 23.6151 15.4296C23.6349 15.5013 23.6547 15.573 23.675 15.6469C23.7232 15.8218 23.771 15.9967 23.8184 16.1718C23.9889 15.9444 24.0408 15.8098 24.1081 15.5489C24.129 15.4721 24.1498 15.3953 24.1713 15.3162C24.2137 15.1565 24.2554 14.9966 24.2963 14.8365C24.5673 13.8504 25.1137 13.0823 26.0936 12.5493C26.5467 12.3381 27.0163 12.2232 27.5098 12.1093C27.6317 12.08 27.7536 12.0506 27.8754 12.0211C28.1925 11.9447 28.5102 11.8703 28.8281 11.7968C28.5719 11.6736 28.3295 11.5987 28.0471 11.5365C27.9645 11.5176 27.882 11.4987 27.797 11.4792C27.6257 11.4407 27.4542 11.4026 27.2827 11.3651C26.2753 11.1326 25.4189 10.7208 24.8291 9.94131C24.3288 9.15073 24.1443 8.2182 23.9063 7.34365C23.8773 7.34365 23.8482 7.34365 23.8184 7.34365ZM7.29493 8.4374C7.38282 8.59365 7.38282 8.59365 7.38282 8.59365L7.29493 8.4374ZM7.20704 8.59365C6.50742 9.81071 5.96523 11.0634 5.45538 12.3509C5.35134 12.613 5.2462 12.8748 5.14111 13.1366C5.01368 13.4542 4.8863 13.7718 4.75939 14.0896C4.50035 14.738 4.23807 15.3853 3.97191 16.0314C3.9396 16.1099 3.9073 16.1883 3.87402 16.2692C3.75355 16.5616 3.63299 16.854 3.51193 17.1462C2.76325 18.9545 2.17715 20.6631 2.1753 22.6073C2.17524 22.6632 2.17518 22.719 2.17512 22.7765C2.17658 23.6421 2.22753 24.4695 2.46094 25.3124C2.47602 25.3697 2.49111 25.4269 2.50665 25.4859C2.73979 26.3563 3.07452 27.1651 3.51563 27.9687C3.55625 28.0431 3.55625 28.0431 3.59768 28.1191C4.23633 29.2736 5.06163 30.2489 6.06446 31.1718C6.17815 31.2802 6.17815 31.2802 6.29414 31.3909C8.23151 33.1921 11.3689 34.67 14.2077 34.7741C14.3937 34.7751 14.5797 34.7709 14.7656 34.7655C14.7212 34.4341 14.6211 34.2879 14.3509 34.0594C14.2839 34.0016 14.2168 33.9439 14.1477 33.8844C14.0761 33.8239 14.0045 33.7634 13.9307 33.7011C13.3441 33.192 12.7982 32.6921 12.3047 32.1093C12.2613 32.0598 12.2179 32.0103 12.1732 31.9593C8.93447 28.2633 7.19006 23.7359 7.18506 19.0575C7.18495 18.9923 7.18483 18.927 7.18471 18.8598C7.18528 17.3993 7.3034 15.9583 7.69455 14.5351C7.78697 13.982 7.56505 13.4099 7.42333 12.8718C7.24169 12.1663 7.19261 11.4986 7.19605 10.7763C7.19622 10.6904 7.19639 10.6045 7.19656 10.516C7.20039 9.87237 7.22926 9.23463 7.29493 8.59365C7.26592 8.59365 7.23692 8.59365 7.20704 8.59365ZM26.6532 14.1775C26.2365 14.5682 26.2055 14.828 26.0156 15.3905C27.1758 16.4218 28.3359 17.453 29.5313 18.5155C30.0174 18.1484 30.0174 18.1484 30.4757 17.7617C30.5293 17.7139 30.5828 17.6661 30.638 17.6168C30.6915 17.5685 30.745 17.5203 30.8002 17.4706C30.8561 17.4206 30.912 17.3705 30.9696 17.3189C31.1056 17.1971 31.2413 17.0751 31.377 16.953C30.9888 16.5413 30.5818 16.1535 30.1568 15.7717C30.092 15.7135 30.0273 15.6553 29.9606 15.5954C29.8247 15.4735 29.6886 15.3517 29.5524 15.23C29.4131 15.1053 29.2742 14.9802 29.1356 14.8547C28.9349 14.673 28.733 14.4922 28.5308 14.3117C28.4689 14.2553 28.407 14.199 28.3432 14.1409C28.2561 14.0637 28.2561 14.0637 28.1672 13.9851C28.1165 13.9395 28.0658 13.894 28.0135 13.8471C27.573 13.5658 27.005 13.9137 26.6532 14.1775ZM34.2773 25.078C34.1599 25.1919 34.0451 25.3079 33.9313 25.4247C33.5811 25.7752 33.2122 26.0903 32.8148 26.3979C32.7464 26.4522 32.6779 26.5065 32.6074 26.5624C32.5329 26.6206 32.4583 26.6788 32.3815 26.7388C32.1191 27.002 31.9957 27.2597 31.8494 27.5829C30.8772 29.615 29.4874 31.4729 27.7978 33.0886C27.6179 33.2617 27.4451 33.4384 27.2736 33.6181C27.0767 33.8222 26.8738 33.9889 26.6364 34.1552C26.3942 34.3269 26.3942 34.3269 26.3287 34.5995C26.3478 34.6817 26.3478 34.6817 26.3672 34.7655C26.8965 34.7795 27.3762 34.7332 27.8943 34.6386C27.9706 34.6247 28.047 34.6107 28.1256 34.5964C29.4394 34.3457 30.6421 33.9371 31.8164 33.3593C31.8737 33.3312 31.9309 33.303 31.9899 33.2741C32.7551 32.893 33.4427 32.471 34.1016 31.953C34.1863 31.8881 34.2711 31.8231 34.3584 31.7562C35.5011 30.8663 36.412 29.8369 37.1777 28.6718C37.2146 28.6165 37.2514 28.5611 37.2893 28.5042C37.3232 28.4497 37.3571 28.3952 37.392 28.3391C37.438 28.2662 37.438 28.2662 37.485 28.1917C37.5476 28.0444 37.5476 28.0444 37.4625 27.8989C37.3465 27.7237 37.2224 27.5984 37.0606 27.455C37.0011 27.4018 36.9416 27.3487 36.8802 27.2939C36.784 27.2092 36.784 27.2092 36.6858 27.1227C36.587 27.0349 36.587 27.0349 36.4861 26.9454C36.3471 26.822 36.2078 26.6988 36.0684 26.5758C35.8539 26.3867 35.6402 26.1969 35.4266 26.007C35.2916 25.8873 35.1565 25.7677 35.0213 25.6481C34.957 25.591 34.8926 25.5339 34.8263 25.475C34.767 25.4228 34.7078 25.3707 34.6467 25.3169C34.5944 25.2707 34.542 25.2244 34.4881 25.1768C34.382 25.0693 34.382 25.0693 34.2773 25.078ZM16.6113 35.703C16.6113 36.5796 16.6113 37.4562 16.6113 38.3593C19.2217 38.3593 21.832 38.3593 24.5215 38.3593C24.5215 37.4827 24.5215 36.6062 24.5215 35.703C24.2539 35.7823 23.9863 35.862 23.7229 35.9517C21.3839 36.7444 19.1636 36.6118 16.875 35.7812C16.788 35.7554 16.701 35.7296 16.6113 35.703Z" fill="#4A4A4A"/>
<path d="M18.6328 20.1562C18.875 20.3267 19.0227 20.4587 19.1602 20.7031C19.171 21.0578 19.1482 21.3269 18.8855 21.6015C18.5798 21.7433 18.363 21.7915 18.0176 21.7968C17.7384 21.7079 17.5576 21.6359 17.3694 21.4306C17.2869 21.1592 17.2626 20.9014 17.3145 20.625C17.6572 20.1477 18.0203 20.0697 18.6328 20.1562Z" fill="#4A4A4A"/>
</g>
<defs>
<clipPath id="clip0_0_176">
<rect width="45" height="40" fill="white"/>
</clipPath>
</defs>
</svg>
