<svg width="72" height="68" viewBox="0 0 72 68" fill="none" xmlns="http://www.w3.org/2000/svg">
<ellipse cx="36" cy="34" rx="36" ry="34" fill="#98A9D4"/>
<g clip-path="url(#clip0_343_1683)">
<path d="M25.6049 10.9768C25.714 10.9764 25.823 10.9761 25.9353 10.9758C26.2365 10.975 26.5377 10.9751 26.8389 10.9754C27.1643 10.9756 27.4897 10.9749 27.815 10.9742C28.452 10.9731 29.0889 10.9729 29.7259 10.9731C30.2438 10.9733 30.7617 10.9731 31.2796 10.9728C31.3534 10.9727 31.4272 10.9726 31.5032 10.9726C31.6531 10.9725 31.803 10.9724 31.9529 10.9723C33.358 10.9713 34.763 10.9715 36.1681 10.972C37.4525 10.9725 38.7368 10.9715 40.0211 10.9698C41.341 10.9681 42.6609 10.9674 43.9807 10.9677C44.7213 10.9679 45.4618 10.9677 46.2024 10.9664C46.8329 10.9654 47.4634 10.9653 48.0939 10.9663C48.4153 10.9669 48.7367 10.967 49.0581 10.9659C49.4072 10.9648 49.7563 10.9657 50.1054 10.9668C50.2061 10.9662 50.3068 10.9655 50.4105 10.9648C51.8161 10.9743 53.106 11.4891 54.1166 12.4732C54.1796 12.538 54.2426 12.6029 54.3075 12.6696C54.3632 12.7235 54.419 12.7775 54.4764 12.833C55.598 13.9943 55.842 15.495 55.8357 17.0394C55.8361 17.1872 55.8365 17.3351 55.8371 17.483C55.8384 17.8873 55.838 18.2915 55.8374 18.6958C55.837 19.1327 55.8381 19.5695 55.839 20.0063C55.8405 20.8613 55.8405 21.7164 55.8401 22.5714C55.8397 23.2666 55.8399 23.9617 55.8403 24.6569C55.8404 24.7559 55.8405 24.855 55.8405 24.957C55.8407 25.1582 55.8408 25.3594 55.8409 25.5607C55.8421 27.4466 55.8417 29.3325 55.8406 31.2185C55.8398 32.9425 55.8409 34.6665 55.843 36.3906C55.8452 38.1623 55.846 39.9339 55.8454 41.7056C55.8451 42.6997 55.8453 43.6937 55.8468 44.6878C55.8481 45.5341 55.8482 46.3804 55.8467 47.2267C55.8459 47.6582 55.8457 48.0896 55.8471 48.5211C55.8483 48.9167 55.8479 49.3123 55.8462 49.7079C55.8458 49.8504 55.8461 49.9929 55.847 50.1353C55.8567 51.749 55.4677 53.1141 54.3305 54.3057C54.2649 54.3717 54.1993 54.4376 54.1317 54.5056C54.0797 54.5606 54.0277 54.6157 53.9741 54.6724C53.6047 55.0328 53.1869 55.2669 52.7309 55.4998C52.6733 55.5295 52.6156 55.5592 52.5562 55.5898C51.764 55.9763 51.0017 56.0256 50.1295 56.0232C50.0205 56.0236 49.9116 56.024 49.7993 56.0244C49.4986 56.0253 49.198 56.0255 48.8974 56.0253C48.5724 56.0252 48.2474 56.0262 47.9224 56.027C47.2864 56.0285 46.6505 56.029 46.0145 56.0291C45.4972 56.0291 44.98 56.0295 44.4628 56.0301C42.9947 56.0316 41.5266 56.0324 40.0585 56.0323C39.9794 56.0323 39.9004 56.0323 39.8189 56.0323C39.7398 56.0323 39.6606 56.0323 39.579 56.0322C38.2965 56.0322 37.014 56.0339 35.7315 56.0363C34.4131 56.0389 33.0946 56.0401 31.7761 56.0399C31.0365 56.0399 30.297 56.0403 29.5574 56.0422C28.9277 56.0438 28.2979 56.0442 27.6682 56.043C27.3473 56.0425 27.0264 56.0424 26.7055 56.044C26.3566 56.0456 26.0078 56.0445 25.659 56.0432C25.5589 56.0441 25.4588 56.045 25.3557 56.0459C23.8417 56.033 22.5155 55.3712 21.4364 54.3298C20.256 52.9543 19.9215 51.4774 19.9367 49.71C19.9371 49.6214 19.9375 49.5327 19.938 49.4414C19.939 49.2251 19.9404 49.0089 19.9422 48.7927C19.8456 48.7947 19.749 48.7967 19.6494 48.7988C18.3024 48.8193 17.1805 48.7246 16.1355 47.7709C15.3493 46.933 15.1451 45.9793 15.1659 44.8736C15.2074 44.0696 15.6022 43.3001 16.1629 42.7282C17.3067 41.7155 18.4007 41.7614 19.9422 41.7614C19.9422 40.1952 19.9422 38.629 19.9422 37.0153C19.3912 37.0153 18.8401 37.0153 18.2723 37.0153C17.0969 36.8157 16.3552 36.2901 15.6356 35.3454C15.1433 34.5227 15.0671 33.6428 15.1961 32.7087C15.4514 31.7286 15.9823 31.0173 16.8201 30.4651C17.8182 29.8826 18.7707 29.9841 19.9422 29.9841C19.9422 28.4179 19.9422 26.8517 19.9422 25.238C19.3912 25.238 18.8401 25.238 18.2723 25.238C17.0975 25.0385 16.3543 24.513 15.6356 23.5681C15.1147 22.6852 15.045 21.7219 15.2576 20.7336C15.5689 19.7879 16.2431 19.0131 17.1133 18.5308C18.0084 18.1282 18.9835 18.1865 19.9422 18.2067C19.9413 18.1546 19.9404 18.1025 19.9395 18.0488C19.911 16.185 19.9673 14.5489 21.1727 13.0212C21.2132 12.9663 21.2536 12.9115 21.2953 12.855C22.3392 11.5193 23.9739 10.9714 25.6049 10.9768ZM22.5735 14.367C21.935 15.2526 21.8481 16.1311 21.8648 17.2015C21.8656 17.2985 21.8664 17.3956 21.8673 17.4955C21.8693 17.7326 21.8722 17.9697 21.8758 18.2067C21.9798 18.211 22.0838 18.2153 22.191 18.2198C23.5199 18.28 24.7238 18.3762 25.7526 19.3236C26.4556 20.1761 26.7112 21.1647 26.6219 22.2497C26.4278 23.2544 25.9853 24.0085 25.1436 24.598C24.0914 25.2165 23.1268 25.1754 21.8758 25.238C21.8758 26.8042 21.8758 28.3704 21.8758 29.9841C22.746 30.0276 22.746 30.0276 23.6336 30.072C24.662 30.2713 25.4805 30.6982 26.0946 31.5661C26.6065 32.3909 26.749 33.3051 26.5811 34.2591C26.3258 35.2196 25.7949 35.9787 24.9544 36.5096C23.9935 37.0311 22.9484 36.9617 21.8758 37.0153C21.8758 38.5815 21.8758 40.1477 21.8758 41.7614C22.4559 41.7904 23.036 41.8194 23.6336 41.8493C24.662 42.0487 25.4805 42.4756 26.0946 43.3434C26.6065 44.1682 26.749 45.0824 26.5811 46.0365C26.3508 46.903 25.8851 47.6805 25.1278 48.1774C24.3055 48.599 23.5386 48.7095 22.6284 48.7542C22.5557 48.758 22.483 48.7618 22.4082 48.7657C22.2307 48.7749 22.0533 48.7838 21.8758 48.7927C21.8681 49.1241 21.8635 49.4555 21.8594 49.7869C21.8571 49.8794 21.8549 49.9719 21.8527 50.0673C21.8424 51.1837 22.1321 52.2793 22.9305 53.0993C23.7103 53.7297 24.5595 54.1641 25.577 54.1655C25.666 54.1659 25.755 54.1662 25.8467 54.1666C25.9439 54.1665 26.0411 54.1664 26.1412 54.1663C26.2449 54.1666 26.3486 54.1669 26.4555 54.1671C26.743 54.1678 27.0306 54.168 27.3182 54.1681C27.6285 54.1682 27.9388 54.1689 28.2491 54.1695C28.9275 54.1707 29.606 54.1712 30.2844 54.1716C30.7083 54.1718 31.1322 54.1722 31.5561 54.1726C32.7304 54.1737 33.9047 54.1746 35.079 54.1749C35.1542 54.1749 35.2293 54.1749 35.3067 54.1749C35.382 54.175 35.4573 54.175 35.5349 54.175C35.6875 54.175 35.8402 54.1751 35.9928 54.1751C36.1063 54.1751 36.1063 54.1751 36.2222 54.1752C37.4479 54.1755 38.6737 54.177 39.8994 54.1791C41.1588 54.1812 42.4182 54.1823 43.6775 54.1824C44.3842 54.1825 45.091 54.183 45.7977 54.1846C46.3996 54.1859 47.0016 54.1864 47.6036 54.1856C47.9104 54.1853 48.2173 54.1854 48.5241 54.1866C48.8576 54.1877 49.1911 54.1872 49.5246 54.1863C49.6683 54.1874 49.6683 54.1874 49.8149 54.1884C51.0232 54.1807 52.0228 53.8646 52.9232 53.0444C53.9232 51.9837 53.9825 50.6981 53.9788 49.3203C53.9791 49.1782 53.9794 49.0362 53.9798 48.8941C53.9807 48.5055 53.9806 48.1169 53.9802 47.7282C53.98 47.3084 53.9808 46.8886 53.9814 46.4688C53.9825 45.647 53.9827 44.8252 53.9825 44.0034C53.9823 43.3352 53.9825 42.6671 53.9829 41.9989C53.9829 41.8561 53.9829 41.8561 53.983 41.7105C53.9831 41.5172 53.9832 41.3238 53.9833 41.1304C53.9843 39.3179 53.9841 37.5054 53.9836 35.6929C53.9831 34.0359 53.9841 32.3789 53.9858 30.7218C53.9875 29.0192 53.9882 27.3166 53.9879 25.6139C53.9877 24.6585 53.9879 23.7031 53.9892 22.7477C53.9902 21.9343 53.9903 21.1209 53.9893 20.3075C53.9888 19.8928 53.9887 19.4781 53.9897 19.0633C53.9907 18.6831 53.9904 18.3029 53.9892 17.9227C53.9889 17.7857 53.9891 17.6488 53.9898 17.5118C53.9966 16.1116 53.8127 14.9409 52.8463 13.8781C51.9435 13.0238 50.8498 12.8185 49.6561 12.8219C49.5519 12.8215 49.4477 12.8211 49.3403 12.8207C49.0524 12.8198 48.7646 12.8196 48.4768 12.8198C48.1658 12.8199 47.8548 12.8189 47.5438 12.8181C46.935 12.8166 46.3262 12.8161 45.7174 12.816C45.2222 12.816 44.727 12.8156 44.2319 12.815C42.8265 12.8135 41.4211 12.8127 40.0158 12.8128C39.9022 12.8128 39.9022 12.8128 39.7864 12.8128C39.6727 12.8128 39.6727 12.8128 39.5567 12.8129C38.329 12.8129 37.1014 12.8112 35.8737 12.8088C34.6116 12.8062 33.3496 12.805 32.0875 12.8052C31.3796 12.8052 30.6716 12.8048 29.9637 12.8029C29.3608 12.8013 28.758 12.8009 28.1551 12.8021C27.8479 12.8026 27.5407 12.8027 27.2335 12.8011C26.8994 12.7998 26.5655 12.8006 26.2314 12.8019C26.1357 12.801 26.04 12.8001 25.9414 12.7992C24.5393 12.8117 23.4946 13.3342 22.5735 14.367ZM17.4044 20.7446C17.0992 21.1935 16.9945 21.5462 17.0827 22.0784C17.2246 22.5952 17.5965 22.9095 18.0086 23.2165C18.2854 23.3088 18.4845 23.3172 18.7752 23.3199C18.8785 23.3211 18.9818 23.3222 19.0882 23.3234C19.2 23.324 19.3117 23.3247 19.4269 23.3253C19.5419 23.326 19.6569 23.3267 19.7754 23.3275C20.0192 23.3288 20.2629 23.3297 20.5066 23.3303C20.8174 23.3313 21.1282 23.3343 21.439 23.3378C21.7369 23.3407 22.0348 23.3411 22.3328 23.3418C22.4437 23.3433 22.5546 23.3449 22.6688 23.3465C23.2971 23.3449 23.7174 23.2973 24.2489 22.9528C24.676 22.5032 24.8231 22.1245 24.8095 21.5116C24.735 20.9999 24.4602 20.6761 24.0621 20.3655C23.7058 20.1719 23.4508 20.1286 23.051 20.1248C22.9494 20.1236 22.8479 20.1225 22.7433 20.1213C22.6334 20.1207 22.5236 20.12 22.4104 20.1194C22.2973 20.1187 22.1843 20.118 22.0678 20.1172C21.8282 20.1159 21.5886 20.115 21.349 20.1144C21.0435 20.1134 20.7381 20.1104 20.4326 20.1069C20.1397 20.104 19.8469 20.1036 19.5539 20.1029C19.445 20.1014 19.336 20.0998 19.2237 20.0982C18.4893 20.1001 17.922 20.1752 17.4044 20.7446ZM17.4099 32.5219C17.0974 32.9684 16.9943 33.3222 17.0827 33.8557C17.2246 34.3726 17.5965 34.6869 18.0086 34.9938C18.2854 35.0861 18.4845 35.0945 18.7752 35.0973C18.8785 35.0984 18.9818 35.0995 19.0882 35.1007C19.2 35.1014 19.3117 35.102 19.4269 35.1027C19.5419 35.1034 19.6569 35.1041 19.7754 35.1048C20.0192 35.1061 20.2629 35.107 20.5066 35.1077C20.8174 35.1086 21.1282 35.1117 21.439 35.1152C21.7369 35.118 22.0348 35.1184 22.3328 35.1192C22.4437 35.1207 22.5546 35.1222 22.6688 35.1238C23.2971 35.1223 23.7174 35.0746 24.2489 34.7302C24.676 34.2805 24.8231 33.9018 24.8095 33.2889C24.735 32.7772 24.4602 32.4534 24.0621 32.1429C23.7025 31.9474 23.4452 31.9059 23.0415 31.9021C22.9379 31.901 22.8344 31.8999 22.7276 31.8987C22.6156 31.898 22.5035 31.8974 22.3881 31.8967C22.2729 31.896 22.1576 31.8953 22.0389 31.8946C21.7948 31.8933 21.5507 31.8924 21.3066 31.8917C20.995 31.8908 20.6835 31.8877 20.3719 31.8842C20.0735 31.8814 19.7751 31.881 19.4767 31.8802C19.3097 31.8779 19.3097 31.8779 19.1393 31.8756C18.3935 31.8774 17.9276 31.9545 17.4099 32.5219ZM17.3285 44.4139C17.053 44.8114 17.0059 45.1669 17.0824 45.6327C17.2125 46.1041 17.5275 46.4147 17.9208 46.6833C18.2497 46.8398 18.5119 46.8819 18.875 46.8846C18.9765 46.8857 19.078 46.8869 19.1826 46.888C19.2915 46.8882 19.4005 46.8884 19.5127 46.8886C19.6256 46.8892 19.7384 46.8898 19.8546 46.8904C20.0931 46.8914 20.3317 46.8918 20.5702 46.8916C20.8743 46.8916 21.1784 46.894 21.4824 46.8971C21.7744 46.8995 22.0663 46.8994 22.3582 46.8996C22.4666 46.9008 22.575 46.9021 22.6867 46.9034C23.3085 46.9001 23.7222 46.8466 24.2489 46.5075C24.676 46.0579 24.8231 45.6791 24.8095 45.0662C24.735 44.5546 24.4602 44.2308 24.0621 43.9202C23.7015 43.7243 23.4449 43.6835 23.0401 43.6809C22.8843 43.6796 22.8843 43.6796 22.7254 43.6783C22.6131 43.6779 22.5007 43.6775 22.385 43.6772C22.2696 43.6767 22.1541 43.6762 22.0352 43.6756C21.7907 43.6747 21.5463 43.6742 21.3018 43.6739C20.9894 43.6734 20.6771 43.6713 20.3647 43.6688C20.0658 43.6668 19.767 43.6666 19.4681 43.6662C19.3563 43.6651 19.2445 43.664 19.1293 43.6629C19.0246 43.6631 18.9199 43.6634 18.8121 43.6637C18.7204 43.6634 18.6287 43.663 18.5342 43.6627C17.9903 43.7298 17.6576 44.0011 17.3285 44.4139Z" fill="white"/>
<path d="M39.3466 18.5626C39.6218 18.7996 39.7093 18.9998 39.808 19.3481C39.7062 20.2812 38.6922 21.0055 38.0656 21.6326C37.9747 21.7238 37.8838 21.815 37.7929 21.9062C37.6038 22.0959 37.4144 22.2854 37.225 22.4748C36.9825 22.7172 36.7406 22.9603 36.4989 23.2036C36.312 23.3914 36.1247 23.5789 35.9372 23.7663C35.8478 23.8558 35.7586 23.9455 35.6695 24.0352C35.5452 24.1604 35.4204 24.2849 35.2955 24.4094C35.2247 24.4802 35.154 24.5511 35.0811 24.6241C34.7388 24.9282 34.4269 25.0446 33.9708 25.0248C33.6832 24.9594 33.5628 24.8464 33.3487 24.6446C33.2722 24.5728 33.1958 24.501 33.117 24.4271C33.0327 24.3456 32.9486 24.2639 32.8646 24.1821C32.8201 24.1389 32.7756 24.0956 32.7297 24.051C32.4406 23.769 32.1543 23.4843 31.8692 23.1982C31.7201 23.0486 31.5706 22.8995 31.421 22.7505C31.3254 22.6548 31.2298 22.5591 31.1343 22.4634C31.0677 22.3971 31.0677 22.3971 30.9997 22.3294C30.6673 21.9947 30.4655 21.7731 30.4531 21.2927C30.4588 20.941 30.4752 20.8634 30.7003 20.5731C31.0531 20.3127 31.2452 20.2755 31.6747 20.3328C32.0827 20.4609 32.3467 20.755 32.6408 21.0552C32.8007 21.2183 32.9631 21.3789 33.1255 21.5396C33.4506 21.8619 33.7735 22.1864 34.0951 22.5122C34.3966 22.3824 34.5902 22.2134 34.8198 21.9804C34.8926 21.9071 34.9653 21.8337 35.0403 21.7582C35.1181 21.6789 35.1959 21.5996 35.2761 21.5179C35.3993 21.3938 35.5224 21.2696 35.6456 21.1455C35.8616 20.9276 36.0769 20.7091 36.2924 20.4907C36.5494 20.2301 36.8065 19.9696 37.0643 19.7098C37.2248 19.548 37.3848 19.3858 37.5444 19.2232C37.6172 19.1499 37.6899 19.0766 37.7649 19.001C37.8286 18.9364 37.8923 18.8717 37.958 18.8051C38.3797 18.4301 38.8099 18.3553 39.3466 18.5626Z" fill="white"/>
<path d="M39.1049 30.2464C39.5916 30.5169 39.5916 30.5169 39.7201 30.7738C39.781 31.1071 39.8063 31.4315 39.6169 31.7244C39.5695 31.7754 39.522 31.8264 39.4732 31.879C39.417 31.9397 39.3609 32.0004 39.303 32.063C38.9023 32.4775 38.4977 32.8876 38.0897 33.2948C37.9924 33.3921 37.8952 33.4894 37.798 33.5867C37.5956 33.7892 37.3932 33.9915 37.1906 34.1937C36.9307 34.4531 36.6712 34.7129 36.4118 34.9727C36.2118 35.1731 36.0116 35.3732 35.8113 35.5733C35.7154 35.6691 35.6197 35.7649 35.524 35.8608C35.3908 35.9942 35.2574 36.1272 35.1239 36.2602C35.0481 36.336 34.9723 36.4117 34.8942 36.4898C34.6168 36.7503 34.4076 36.7913 34.0249 36.7864C33.4398 36.6775 32.933 36.054 32.5275 35.6455C32.4743 35.5925 32.4211 35.5395 32.3662 35.4848C32.2551 35.3738 32.1442 35.2626 32.0335 35.1511C31.8641 34.9807 31.6937 34.8113 31.5233 34.642C31.4148 34.5335 31.3065 34.4249 31.1981 34.3162C31.1474 34.2658 31.0967 34.2155 31.0444 34.1636C30.6851 33.8 30.4683 33.5367 30.4531 33.0205C30.4591 32.6894 30.4826 32.6308 30.7003 32.3558C31.0613 32.0808 31.2653 32.0541 31.722 32.0922C32.0988 32.3132 32.3985 32.5719 32.7046 32.8818C32.7862 32.9639 32.8678 33.0461 32.9518 33.1307C33.0363 33.2166 33.1208 33.3026 33.2052 33.3885C33.2917 33.4759 33.3782 33.5632 33.4648 33.6505C33.6753 33.8631 33.8854 34.0761 34.0951 34.2894C34.3966 34.1596 34.5902 33.9906 34.8198 33.7576C34.8926 33.6843 34.9653 33.611 35.0403 33.5354C35.1181 33.4561 35.1959 33.3768 35.2761 33.2952C35.3993 33.171 35.5224 33.0468 35.6456 32.9227C35.8616 32.7048 36.0769 32.4864 36.2924 32.2679C36.5494 32.0073 36.8065 31.7468 37.0643 31.487C37.2248 31.3252 37.3848 31.163 37.5444 31.0005C37.6172 30.9271 37.6899 30.8538 37.7649 30.7783C37.8286 30.7136 37.8923 30.6489 37.958 30.5823C38.3256 30.2555 38.6131 30.1956 39.1049 30.2464Z" fill="white"/>
<path d="M39.1914 42.0236C39.5145 42.1992 39.611 42.3313 39.7627 42.6663C39.8146 43.049 39.7282 43.2789 39.543 43.6057C39.3898 43.7895 39.2422 43.9521 39.0721 44.1178C39.0252 44.1649 38.9783 44.212 38.9299 44.2606C38.7761 44.4146 38.6211 44.5673 38.466 44.7201C38.3583 44.8273 38.2507 44.9346 38.1432 45.0419C37.9185 45.266 37.6932 45.4895 37.4674 45.7125C37.1777 45.9988 36.889 46.2859 36.6006 46.5735C36.3255 46.8477 36.0499 47.1215 35.7743 47.3952C35.7217 47.4476 35.669 47.5 35.6147 47.5539C35.4662 47.7014 35.3174 47.8486 35.1685 47.9957C35.1243 48.0396 35.0802 48.0835 35.0347 48.1288C34.7499 48.4091 34.6171 48.516 34.2146 48.5715C33.8814 48.5676 33.7368 48.4803 33.4946 48.2556C33.4337 48.1996 33.3727 48.1436 33.3099 48.0858C33.2495 48.0286 33.1891 47.9713 33.127 47.9123C33.0731 47.8618 33.0193 47.8113 32.9639 47.7593C32.6221 47.4354 32.2872 47.1042 31.9522 46.7731C31.8303 46.6531 31.7078 46.5336 31.5848 46.4147C31.4055 46.2413 31.2281 46.0663 31.0509 45.8908C30.9959 45.8382 30.9408 45.7857 30.8842 45.7315C30.5462 45.3919 30.4065 45.1602 30.4023 44.6603C30.5334 44.3018 30.6666 44.0356 31.0176 43.8693C31.3013 43.7961 31.5243 43.7954 31.8086 43.8693C32.0895 44.051 32.3154 44.2762 32.5474 44.5161C32.7147 44.6883 32.8852 44.8571 33.0559 45.026C33.4038 45.3709 33.7494 45.7181 34.0938 46.0666C34.3953 45.9368 34.5888 45.7678 34.8185 45.5348C34.8912 45.4615 34.964 45.3881 35.0389 45.3126C35.1168 45.2333 35.1946 45.154 35.2748 45.0723C35.3979 44.9482 35.5211 44.824 35.6442 44.6999C35.8602 44.482 36.0756 44.2635 36.291 44.0451C36.548 43.7845 36.8052 43.524 37.063 43.2642C37.2234 43.1024 37.3835 42.9402 37.5431 42.7776C37.6158 42.7043 37.6886 42.631 37.7635 42.5554C37.8273 42.4908 37.891 42.4261 37.9567 42.3595C38.3313 42.0264 38.6941 41.9455 39.1914 42.0236Z" fill="white"/>
<path d="M44.3001 32.5181C44.4112 32.5173 44.5224 32.5164 44.637 32.5156C44.7585 32.5152 44.88 32.5148 45.0015 32.5144C45.1262 32.5139 45.2509 32.5134 45.3756 32.5129C45.637 32.512 45.8983 32.5115 46.1597 32.5112C46.4942 32.5107 46.8286 32.5086 47.1631 32.5061C47.4206 32.5045 47.6782 32.504 47.9358 32.5039C48.0591 32.5036 48.1823 32.5029 48.3056 32.5017C48.4783 32.5002 48.651 32.5006 48.8237 32.501C48.9218 32.5007 49.02 32.5003 49.1211 32.5C49.4896 32.545 49.7165 32.6947 49.9845 32.9443C50.139 33.2452 50.157 33.5248 50.0889 33.8507C49.9151 34.1602 49.7286 34.3516 49.3857 34.4659C49.2061 34.475 49.0263 34.479 48.8464 34.4801C48.7352 34.4809 48.6241 34.4817 48.5095 34.4826C48.388 34.483 48.2665 34.4834 48.145 34.4837C48.0203 34.4843 47.8956 34.4848 47.7709 34.4853C47.5095 34.4862 47.2481 34.4867 46.9867 34.487C46.6523 34.4875 46.3178 34.4896 45.9834 34.4921C45.7258 34.4937 45.4683 34.4942 45.2107 34.4943C45.0874 34.4946 44.9641 34.4953 44.8409 34.4965C44.6682 34.498 44.4955 34.4976 44.3228 34.4972C44.1756 34.4977 44.1756 34.4977 44.0254 34.4982C43.64 34.4512 43.4107 34.3036 43.1565 34.0155C43.0143 33.6521 43.0415 33.3451 43.1455 32.9718C43.467 32.5432 43.7889 32.5213 44.3001 32.5181Z" fill="white"/>
<path d="M44.3068 44.2924C44.4194 44.291 44.5321 44.2896 44.6482 44.2881C44.7713 44.2871 44.8945 44.2862 45.0177 44.2853C45.0798 44.2849 45.142 44.2844 45.206 44.2839C45.5348 44.2816 45.8637 44.2799 46.1925 44.2786C46.4642 44.2774 46.7359 44.275 47.0076 44.2714C47.3361 44.2671 47.6646 44.2649 47.9932 44.2643C48.1182 44.2637 48.2431 44.2623 48.368 44.2602C49.4673 44.2427 49.4673 44.2427 49.8126 44.521C50.0727 44.8355 50.1239 45.0298 50.1202 45.4427C50.0644 45.7733 49.8889 45.9268 49.6495 46.1551C49.3629 46.2506 49.1495 46.2559 48.8479 46.2585C48.6815 46.2602 48.6815 46.2602 48.5118 46.2619C48.3906 46.2627 48.2694 46.2633 48.1481 46.2639C48.087 46.2643 48.0258 46.2646 47.9628 46.265C47.6391 46.2668 47.3153 46.2681 46.9916 46.2689C46.6579 46.2699 46.3243 46.2729 45.9907 46.2764C45.7335 46.2787 45.4763 46.2794 45.2191 46.2797C45.0961 46.2802 44.9732 46.2812 44.8502 46.2828C44.6778 46.285 44.5053 46.2847 44.3328 46.2843C44.1859 46.285 44.1859 46.285 44.036 46.2858C43.6948 46.2327 43.5034 46.1023 43.2334 45.8914C43.0093 45.5723 43.0461 45.3077 43.0975 44.9356C43.165 44.6734 43.2782 44.5518 43.4971 44.3973C43.7856 44.3011 44.003 44.2959 44.3068 44.2924Z" fill="white"/>
<path d="M44.3104 20.7323C44.4216 20.7315 44.5327 20.7306 44.6473 20.7298C44.7683 20.7298 44.8894 20.7299 45.0105 20.73C45.135 20.7297 45.2596 20.7293 45.3841 20.7289C45.645 20.7282 45.9059 20.7282 46.1667 20.7287C46.5005 20.7292 46.8342 20.7277 47.168 20.7257C47.4252 20.7244 47.6824 20.7243 47.9396 20.7246C48.0626 20.7245 48.1856 20.7241 48.3087 20.7232C48.4809 20.7221 48.6532 20.7229 48.8254 20.7237C48.9233 20.7237 49.0212 20.7236 49.1221 20.7236C49.4899 20.7694 49.7172 20.9192 49.9849 21.1684C50.1393 21.4691 50.158 21.7492 50.0892 22.0748C49.9352 22.3401 49.7526 22.5507 49.474 22.69C49.295 22.6994 49.1158 22.7031 48.9366 22.7042C48.8236 22.705 48.7107 22.7059 48.5943 22.7068C48.4704 22.7072 48.3465 22.7076 48.2226 22.7079C48.0958 22.7084 47.969 22.7089 47.8422 22.7094C47.5762 22.7103 47.3101 22.7108 47.0441 22.7112C46.7036 22.7116 46.3632 22.7137 46.0227 22.7162C45.7607 22.7179 45.4987 22.7183 45.2366 22.7185C45.1112 22.7187 44.9857 22.7194 44.8602 22.7206C44.6844 22.7221 44.5085 22.7218 44.3326 22.7214C44.1827 22.7218 44.1827 22.7218 44.0297 22.7223C43.7277 22.686 43.5652 22.6054 43.3217 22.4264C43.1347 22.1878 43.0642 22.0288 43.0195 21.7287C43.0688 21.3837 43.1901 21.2005 43.4095 20.9322C43.7061 20.7365 43.96 20.7338 44.3104 20.7323Z" fill="white"/>
</g>
<defs>
<clipPath id="clip0_343_1683">
<rect width="45" height="45" fill="white" transform="translate(13 11)"/>
</clipPath>
</defs>
</svg>
