<svg width="45" height="31" viewBox="0 0 45 31" fill="none" xmlns="http://www.w3.org/2000/svg">
<path d="M21.2695 0.857422C17.8857 1.57812 15.6621 4.66309 16.084 8.04688C16.4971 11.3867 18.6592 14.6475 21.085 15.6055C21.7881 15.8867 23.2119 15.8867 23.915 15.6055C26.0684 14.7529 27.9053 12.292 28.7139 9.18066C28.9863 8.11719 29.0215 6.64062 28.793 5.7002C28.248 3.44141 26.3936 1.55176 24.126 0.954102C23.3965 0.751953 21.9727 0.708008 21.2695 0.857422ZM24.0908 2.45703C25.6728 2.94922 26.9561 4.33789 27.3955 6.03418C27.5801 6.75488 27.5098 8.25781 27.2461 9.17188C27.0176 9.98926 26.3408 11.4307 25.8311 12.1689C25.3652 12.8633 24.6006 13.6279 24.0557 13.9443C23.8271 14.0762 23.3877 14.252 23.0713 14.3311C22.5439 14.4629 22.4561 14.4629 21.9111 14.3223C21.1904 14.1465 20.2939 13.5664 19.7402 12.916C18.3779 11.3164 17.4902 9.06641 17.4902 7.2207C17.4902 5.02344 18.8437 3.13379 20.918 2.44824C21.9463 2.10547 22.9746 2.11426 24.0908 2.45703Z" fill="#4A4A4A"/>
<path d="M6.97852 8.77637C6.06445 8.96973 5.2998 9.40039 4.56152 10.1387C3.51562 11.167 3.0498 12.2656 3.04102 13.6982C3.04102 15.0869 3.50684 16.2031 4.51758 17.2227L5.1416 17.8643L4.6582 18.0928C2.61914 19.0859 1.16895 20.8262 0.474609 23.1113C0.228516 23.8936 0.228516 23.9111 0.193359 27.0752L0.158203 30.2656H22.5H44.8418L44.7979 27.1191C44.7627 23.7441 44.7363 23.5332 44.2354 22.2764C43.5322 20.5098 41.9678 18.8486 40.2979 18.084L39.8232 17.8643L40.4121 17.2754C42.4248 15.2627 42.4336 12.1426 40.4209 10.1299C39.5332 9.2334 38.1533 8.65332 36.9053 8.64453C34.7783 8.63574 32.7305 10.1562 32.0713 12.248C31.8164 13.0479 31.8164 14.3574 32.0713 15.1484C32.3262 15.9658 32.8359 16.7656 33.4512 17.3457L33.9961 17.8467L33.5215 18.084C33.2578 18.207 33.0293 18.3125 33.0117 18.3125C32.9854 18.3125 32.8359 18.0664 32.6602 17.7588C32.2646 17.0645 31.7021 16.3789 31.1045 15.8779C30.1816 15.1221 28.5117 14.4541 27.5098 14.4453H27.1934L25.8926 17.1699C25.1719 18.6729 24.5566 19.9209 24.5215 19.9385C24.4863 19.9648 24.3896 19.6309 24.3105 19.209C24.2227 18.7871 24.1348 18.3564 24.1084 18.2422C24.0732 18.0752 24.0996 18.0488 24.3369 18.0488H24.6094V17.3018V16.5547H22.4561H20.3027V17.3018V18.0488H20.5664C20.7598 18.0488 20.8301 18.0928 20.8301 18.1982C20.8213 18.418 20.5137 19.8945 20.4609 19.9473C20.4346 19.9648 19.8193 18.752 19.0898 17.2402L17.7715 14.4893L17.1914 14.5068C15.9346 14.5508 14.4492 15.2715 13.3594 16.3701C12.8232 16.915 12.1465 17.8555 12.0234 18.2422C12.0059 18.2861 11.7686 18.2158 11.4961 18.0928L10.9951 17.8643L11.6016 17.2578C13.166 15.6934 13.5264 13.4873 12.5508 11.4658C11.5664 9.41797 9.22852 8.28418 6.97852 8.77637ZM9.59766 10.4287C10.3711 10.8066 10.9336 11.3691 11.3115 12.1426C11.6279 12.7842 11.6455 12.8457 11.6455 13.6982C11.6455 14.5508 11.6279 14.6123 11.3115 15.2539C10.9336 16.0273 10.3711 16.5898 9.59766 16.9678C8.90332 17.3105 7.66406 17.3633 6.93457 17.0908C6.19629 16.8096 5.64258 16.4053 5.2207 15.834C4.71973 15.1484 4.53516 14.5684 4.53516 13.6982C4.53516 12.8281 4.71973 12.248 5.2207 11.5713C5.64258 10.9912 6.08203 10.666 6.8291 10.3496C7.27734 10.1562 7.44434 10.1387 8.21777 10.1562C8.97363 10.1826 9.17578 10.2178 9.59766 10.4287ZM38.4873 10.4814C41.1592 11.8525 41.1592 15.5264 38.4873 16.9238C37.9424 17.2051 37.8896 17.2139 36.9141 17.2139C35.9824 17.2139 35.8594 17.1963 35.4023 16.9678C34.6289 16.5898 34.0664 16.0273 33.6885 15.2539C33.3721 14.6123 33.3545 14.5508 33.3545 13.707C33.3545 12.8984 33.3809 12.7666 33.627 12.248C34.0752 11.29 34.7607 10.6572 35.71 10.3057C36.0791 10.1738 36.3428 10.1387 37.0459 10.165C37.8369 10.1914 37.9775 10.2178 38.4873 10.4814ZM19.7139 21.8018C21.2256 24.957 22.4736 27.541 22.5 27.541C22.5264 27.541 23.7744 24.9658 25.2686 21.8193C26.7715 18.6816 28.0459 16.0801 28.1162 16.0537C28.3096 15.9658 29.1182 16.2646 29.6895 16.6338C31.0693 17.5303 31.9219 18.9277 32.0537 20.5098C32.0889 20.9844 31.4912 26.8906 31.2363 28.5254L31.1836 28.8594H22.5H13.8076L13.7637 28.5693C13.7373 28.4199 13.5264 26.6621 13.3066 24.6846C13.0342 22.2588 12.9199 20.8965 12.9463 20.5098C13.1045 18.6377 14.3262 16.959 16.0752 16.2295C16.9541 15.8691 16.6465 15.3857 19.7139 21.8018ZM23.0537 20.1406L23.4668 22.2324L23.0098 23.2168C22.7637 23.7617 22.5264 24.2012 22.5 24.2012C22.4736 24.2012 22.2363 23.7617 21.9902 23.2168L21.5332 22.2324L21.9463 20.1406C22.2715 18.4971 22.3945 18.0488 22.5 18.0488C22.6055 18.0488 22.7285 18.4971 23.0537 20.1406ZM9.38672 18.8838C9.78223 18.9629 10.3711 19.1738 10.8018 19.3936L11.5488 19.7627L11.5225 20.6855C11.5137 21.3184 11.6367 22.7246 11.9092 25.1416C12.1289 27.084 12.3047 28.7188 12.3047 28.7627C12.3047 28.833 10.7139 28.8506 6.96973 28.8418L1.62598 28.8154L1.63477 26.5742C1.64355 24.0254 1.70508 23.5771 2.28516 22.3994C2.93555 21.0635 3.91113 20.0967 5.31738 19.4111C6.60059 18.7783 7.96289 18.6025 9.38672 18.8838ZM38.2148 18.8838C39.0498 19.0508 40.2891 19.6484 41.001 20.2197C41.7129 20.7998 42.3105 21.5557 42.7148 22.3994C43.2949 23.6211 43.3652 24.0342 43.3652 26.5742L43.374 28.8154L38.0391 28.8418C32.9941 28.8594 32.6953 28.8506 32.6953 28.71C32.6953 28.6221 32.8711 26.9873 33.0908 25.0801C33.3633 22.6982 33.4863 21.3184 33.4688 20.6855L33.4512 19.7627L34.1982 19.3936C35.4111 18.7783 36.7998 18.6025 38.2148 18.8838Z" fill="#4A4A4A"/>
<path d="M26.8066 22.3555V23.0586H28.96H31.1133V22.3555V21.6523H28.96H26.8066V22.3555Z" fill="#4A4A4A"/>
</svg>
