<svg width="45" height="40" viewBox="0 0 45 40" fill="none" xmlns="http://www.w3.org/2000/svg">
<path d="M9.90485 1.22107C10.0141 1.22001 10.0141 1.22001 10.1256 1.21893C10.2794 1.21781 10.4332 1.21711 10.5869 1.21682C10.819 1.21589 11.0509 1.21205 11.2829 1.2081C12.2111 1.20018 13.0511 1.23916 13.813 1.77405C13.8663 1.80738 13.9196 1.84072 13.9746 1.87506C14.1966 1.82951 14.1966 1.82951 14.4141 1.71881C14.4886 1.68649 14.5631 1.65416 14.64 1.62085C14.7141 1.58712 14.7881 1.55338 14.8645 1.51862C15.3588 1.29359 15.7487 1.23595 16.3013 1.23145C16.3749 1.23082 16.4485 1.23019 16.5244 1.22954C16.6805 1.22846 16.8366 1.22762 16.9927 1.227C17.1512 1.22611 17.3096 1.22451 17.4681 1.2222C18.5538 1.20632 19.5037 1.20074 20.3439 1.89826C20.859 2.40749 21.082 2.95735 21.1706 3.63288C21.2391 4.04703 21.3014 4.30092 21.6211 4.60944C21.9763 4.83851 22.322 4.89985 22.7472 4.95612C23.5759 5.08087 24.2949 5.30276 24.8212 5.92871C25.2096 6.45718 25.3388 6.92255 25.338 7.54698C25.3386 7.61285 25.3392 7.67872 25.3398 7.74659C25.3415 7.96349 25.3418 8.18037 25.342 8.39728C25.3426 8.54888 25.3432 8.70048 25.3438 8.85207C25.3448 9.16966 25.3452 9.48724 25.3451 9.80483C25.345 10.2102 25.3474 10.6156 25.3505 11.021C25.3524 11.3342 25.3528 11.6473 25.3527 11.9604C25.3529 12.1098 25.3537 12.2592 25.355 12.4086C25.363 13.3702 25.3647 14.2149 24.5829 14.9589C24.2278 15.2426 23.8577 15.4349 23.4009 15.5567C23.0088 15.7578 22.9723 15.9783 22.8409 16.3508C22.6252 16.9422 22.072 17.4596 21.4803 17.7802C21.1452 17.9322 20.845 18.0436 20.4785 18.1251C20.4495 18.7438 20.4205 19.3626 20.3906 20.0001C20.5941 19.9964 20.7976 19.9928 21.0072 19.9891C21.2079 19.9866 21.4087 19.9847 21.6094 19.9829C21.7471 19.9813 21.8849 19.9792 22.0226 19.9765C23.4823 19.9483 24.5466 20.2147 25.6421 21.1182C26.6026 22.0204 26.7759 23.045 26.7917 24.2361C26.7943 24.3673 26.7991 24.4985 26.8062 24.6296C26.8512 25.4706 26.7754 26.0267 26.1359 26.6726C26.0521 26.7527 25.9674 26.832 25.8816 26.9105C25.6597 27.1173 25.4577 27.3391 25.2521 27.5587C25.1715 27.6428 25.0908 27.7268 25.01 27.8107C24.7519 28.0818 24.5023 28.358 24.254 28.6362C23.9373 28.9897 23.6135 29.3382 23.291 29.6876C23.1591 29.8308 23.0273 29.974 22.8955 30.1173C22.6927 30.3376 22.4898 30.558 22.2868 30.7783C22.2176 30.8534 22.1483 30.9285 22.077 31.0059C22.0148 31.0734 21.9526 31.1409 21.8885 31.2104C21.7102 31.405 21.5335 31.6007 21.3574 31.7969C21.4217 31.7973 21.4859 31.7976 21.5521 31.7979C21.8444 31.8005 22.1364 31.806 22.4286 31.8116C22.5297 31.812 22.6308 31.8125 22.735 31.813C22.8816 31.8164 22.8816 31.8164 23.0311 31.8198C23.1209 31.8211 23.2106 31.8223 23.3031 31.8235C23.6382 31.8922 23.7845 32.0376 23.9941 32.2657C24.0457 32.3197 24.0972 32.3738 24.1503 32.4294C25.2176 33.5951 25.5045 34.563 25.4313 36.0502C25.4166 36.3478 25.4114 36.6448 25.4078 36.9427C25.4034 37.1328 25.3986 37.323 25.3932 37.5132C25.3909 37.6016 25.3885 37.6901 25.3861 37.7812C25.3819 37.863 25.3777 37.9447 25.3733 38.029C25.3701 38.1006 25.3669 38.1722 25.3636 38.246C25.2927 38.5118 25.2111 38.5882 24.9609 38.7501C24.6723 38.7975 24.3863 38.7922 24.0935 38.7897C24.0045 38.7902 23.9154 38.7907 23.8236 38.7912C23.5243 38.7925 23.225 38.7915 22.9257 38.7905C22.7115 38.7909 22.4973 38.7915 22.283 38.7922C21.761 38.7934 21.239 38.7932 20.7171 38.7923C20.2929 38.7916 19.8687 38.7915 19.4445 38.7919C19.3841 38.7919 19.3238 38.792 19.2616 38.792C19.139 38.7921 19.0164 38.7922 18.8939 38.7923C17.744 38.7932 16.5942 38.7922 15.4444 38.7905C14.4576 38.7891 13.4707 38.7894 12.4839 38.7908C11.3382 38.7925 10.1926 38.7931 9.04691 38.7922C8.92477 38.7921 8.80263 38.792 8.6805 38.7919C8.6204 38.7918 8.56031 38.7918 8.49839 38.7917C8.07465 38.7915 7.65091 38.7919 7.22717 38.7927C6.65697 38.7936 6.0868 38.7929 5.5166 38.7911C5.30699 38.7907 5.09738 38.7908 4.88777 38.7915C4.6023 38.7924 4.31692 38.7913 4.03146 38.7897C3.90614 38.7908 3.90614 38.7908 3.77828 38.7919C3.21935 38.7859 3.21935 38.7859 2.93737 38.6032C2.7856 38.4019 2.7611 38.2753 2.74747 38.034C2.74246 37.9531 2.73744 37.8723 2.73227 37.789C2.72906 37.7016 2.72585 37.6142 2.72254 37.5242C2.7187 37.4331 2.71487 37.342 2.71091 37.2481C2.70093 36.9529 2.69546 36.6578 2.69164 36.3624C2.69003 36.2629 2.68841 36.1635 2.68675 36.0611C2.67429 34.4167 2.92986 33.2815 4.22934 32.0863C4.5077 31.862 4.6995 31.8619 5.06812 31.8503C5.16669 31.8471 5.26525 31.8438 5.36681 31.8404C5.47014 31.8374 5.57346 31.8343 5.67992 31.8311C5.78393 31.8277 5.88793 31.8244 5.99509 31.8209C6.25257 31.8126 6.51006 31.8046 6.76757 31.7969C6.67971 31.706 6.67971 31.706 6.59007 31.6132C6.15669 31.1625 5.73165 30.7079 5.32286 30.2393C4.94735 29.8093 4.55594 29.3941 4.15514 28.9825C3.8428 28.6614 3.54081 28.3343 3.24473 28.0012C3.06306 27.7979 2.87758 27.5977 2.69164 27.3975C2.63 27.329 2.56836 27.2604 2.50485 27.1898C2.28969 26.9522 2.28969 26.9522 2.05589 26.74C1.3796 26.0681 1.28053 25.5314 1.32062 24.6441C1.32934 24.4482 1.33143 24.2529 1.33242 24.0569C1.35197 22.8144 1.6994 21.8814 2.66417 20.9571C3.73103 20.0596 4.8962 19.9648 6.29515 19.9854C6.43511 19.9866 6.57508 19.9877 6.71504 19.9886C7.05487 19.991 7.39453 19.9956 7.73436 20.0001C7.70536 19.3813 7.67636 18.7626 7.64647 18.1251C7.35643 18.0219 7.06639 17.9188 6.76757 17.8126C5.84244 17.3521 5.33327 16.6918 5.02383 15.8039C4.93887 15.6127 4.93887 15.6127 4.73407 15.535C4.62309 15.5047 4.62309 15.5047 4.50988 15.4737C3.78078 15.2393 3.32911 14.8361 2.98827 14.2188C2.81089 13.828 2.78642 13.4925 2.78695 13.0781C2.78636 13.0123 2.78577 12.9464 2.78517 12.8785C2.7835 12.6616 2.78315 12.4448 2.78296 12.2278C2.7824 12.0762 2.78181 11.9247 2.78119 11.7731C2.78014 11.4555 2.77981 11.1379 2.77992 10.8203C2.77993 10.4149 2.77754 10.0095 2.77451 9.60411C2.77254 9.29097 2.7722 8.97783 2.77229 8.66469C2.77208 8.51531 2.77131 8.36593 2.76995 8.21656C2.76198 7.25511 2.76014 6.41041 3.54171 5.66657C4.11459 5.20873 4.73318 5.01052 5.49315 4.9317C5.95907 4.87086 6.2447 4.81548 6.59179 4.53131C6.84949 4.21555 6.9185 3.90831 6.9818 3.53034C7.12214 2.79367 7.37177 2.15462 8.07597 1.68677C8.67121 1.34109 9.20128 1.22535 9.90485 1.22107ZM8.79454 2.94928C8.56009 3.27768 8.46965 3.57162 8.40075 3.95392C8.27693 4.635 8.05331 5.30044 7.39859 5.73004C6.87296 6.03561 6.382 6.17546 5.75682 6.2403C5.16146 6.31857 4.83323 6.44305 4.45494 6.87018C4.21367 7.25941 4.2073 7.60985 4.20458 8.04961C4.20414 8.1034 4.2037 8.15719 4.20325 8.21261C4.20198 8.38973 4.20137 8.56684 4.20089 8.74396C4.20064 8.80478 4.20039 8.8656 4.20013 8.92827C4.19882 9.25024 4.198 9.5722 4.19762 9.89417C4.19714 10.2252 4.19503 10.5563 4.19253 10.8873C4.19088 11.1432 4.19043 11.3991 4.1903 11.655C4.19004 11.777 4.18934 11.899 4.18817 12.0209C4.15802 13.105 4.15802 13.105 4.69115 14.0479C4.89164 14.1849 5.02677 14.2215 5.27961 14.2621C5.61895 14.3178 5.85696 14.3697 6.15233 14.5313C6.33395 14.8032 6.42235 15.0993 6.50389 15.4052C6.62527 15.8559 6.79901 16.1834 7.20702 16.4844C7.38104 16.5618 7.55507 16.6391 7.73436 16.7188C7.73436 14.0891 7.73436 11.4594 7.73436 8.75006C7.2703 8.75006 6.80624 8.75006 6.32811 8.75006C6.32811 8.33756 6.32811 7.92506 6.32811 7.50006C6.59646 7.50278 6.59646 7.50278 6.87022 7.50556C7.04446 7.50664 7.21871 7.50773 7.39295 7.50865C7.51357 7.50943 7.6342 7.51049 7.75481 7.51185C7.92869 7.51376 8.10258 7.51455 8.27647 7.51532C8.38095 7.51614 8.48543 7.51696 8.59308 7.5178C8.95664 7.49508 9.20307 7.44826 9.46025 7.21123C9.61366 6.98087 9.71914 6.74626 9.82726 6.49634C9.87326 6.39161 9.91926 6.28689 9.96527 6.18216C10.0366 6.01799 10.1078 5.85374 10.1787 5.68944C10.2478 5.53014 10.3176 5.37115 10.3876 5.21216C10.4493 5.0697 10.4493 5.0697 10.5122 4.92436C10.6877 4.58534 10.6877 4.58534 10.8984 4.45319C11.3814 4.40549 11.3814 4.40549 11.6016 4.45319C11.8866 4.67546 12.0649 4.91228 12.2511 5.20423C12.3339 5.33119 12.3339 5.33119 12.4183 5.46073C12.5322 5.63743 12.6455 5.81443 12.7582 5.99173C13.1392 6.5735 13.5227 7.0553 14.2053 7.37311C14.6807 7.48432 15.141 7.51114 15.6306 7.50893C15.6975 7.50894 15.7645 7.50896 15.8334 7.50897C16.0531 7.50891 16.2728 7.50831 16.4925 7.50769C16.6455 7.50755 16.7984 7.50744 16.9514 7.50736C17.3528 7.50706 17.7541 7.50629 18.1555 7.50543C18.5656 7.50463 18.9757 7.50427 19.3857 7.50388C20.1894 7.50304 20.9931 7.50167 21.7969 7.50006C21.7969 7.91256 21.7969 8.32506 21.7969 8.75006C21.3328 8.75006 20.8687 8.75006 20.3906 8.75006C20.3906 11.3798 20.3906 14.0094 20.3906 16.7188C21.1768 16.3228 21.1768 16.3228 21.5802 15.6354C21.6095 15.5258 21.6388 15.4162 21.6681 15.3066C21.7449 15.0255 21.8272 14.793 21.9726 14.5313C22.2639 14.3802 22.5128 14.3259 22.8423 14.2676C23.2383 14.1968 23.3827 14.1018 23.6426 13.8282C24.0033 13.2157 23.9447 12.5217 23.9413 11.8506C23.9414 11.7272 23.9417 11.6038 23.942 11.4804C23.9424 11.2227 23.9419 10.9651 23.9406 10.7074C23.9391 10.3788 23.94 10.0502 23.9416 9.72161C23.9425 9.46704 23.9422 9.21249 23.9415 8.95792C23.9413 8.83683 23.9416 8.71573 23.9422 8.59464C23.9802 7.57738 23.9802 7.57738 23.5305 6.67437C23.1623 6.37072 22.7538 6.2862 22.2706 6.21741C21.5044 6.10735 20.7558 5.90857 20.2725 5.3266C19.9287 4.85937 19.7714 4.42297 19.6985 3.86725C19.6104 3.33804 19.4704 3.04627 18.9899 2.71002C18.4643 2.45263 17.9218 2.48576 17.3364 2.48542C17.2528 2.48446 17.1692 2.4835 17.083 2.48252C16.0475 2.47923 16.0475 2.47923 15.1721 2.9151C15.0865 2.98746 15.0865 2.98746 14.9991 3.06128C14.8304 3.22567 14.7068 3.39748 14.5898 3.59381C14.3081 3.71901 14.0166 3.70951 13.7109 3.67194C13.5297 3.55475 13.5297 3.55475 13.3594 3.35944C12.8658 2.82322 12.5622 2.59519 11.7773 2.50006C11.4605 2.48499 11.1442 2.48205 10.827 2.48053C10.7438 2.47892 10.6606 2.47731 10.5748 2.47565C9.93942 2.47254 9.24912 2.50747 8.79454 2.94928ZM11.3379 6.48444C11.3175 6.52777 11.2971 6.5711 11.2761 6.61574C11.1833 6.81291 11.0903 7.01 10.9973 7.2071C10.9652 7.27527 10.9332 7.34345 10.9001 7.4137C10.869 7.47966 10.8378 7.54563 10.8057 7.61359C10.7772 7.67414 10.7487 7.73469 10.7193 7.79708C10.6914 7.85375 10.6635 7.91042 10.6348 7.96881C10.6095 8.02448 10.5842 8.08015 10.5582 8.1375C10.3602 8.42458 9.94439 8.4949 9.60204 8.60358C9.51548 8.63117 9.42892 8.65877 9.33974 8.6872C9.27403 8.70794 9.20832 8.72869 9.14061 8.75006C9.13652 9.46458 9.1334 10.1791 9.13151 10.8936C9.13059 11.2255 9.12936 11.5574 9.12735 11.8893C9.12542 12.2105 9.12439 12.5316 9.12394 12.8528C9.12361 12.9744 9.12299 13.0961 9.12203 13.2177C9.11005 14.8017 9.30851 16.1963 10.5469 17.4219C11.6076 18.3386 12.8205 18.7059 14.2688 18.7003C15.3505 18.6805 16.1828 18.3794 17.0508 17.8126C17.113 17.7735 17.1752 17.7344 17.2393 17.6942C18.1563 17.0575 18.7557 16.0179 18.921 15.006C19.0039 14.361 18.9955 13.7164 18.9929 13.0683C18.9928 12.9433 18.9927 12.8183 18.9926 12.6933C18.9922 12.3668 18.9914 12.0404 18.9904 11.7139C18.9895 11.3797 18.9891 11.0456 18.9887 10.7114C18.9877 10.0576 18.9862 9.40385 18.9844 8.75006C18.9259 8.74978 18.8675 8.74949 18.8074 8.7492C18.1956 8.74592 17.5839 8.74049 16.9722 8.73385C16.7443 8.73166 16.5165 8.72999 16.2886 8.72889C15.9598 8.72721 15.631 8.72356 15.3022 8.71955C15.2015 8.71945 15.1007 8.71935 14.9969 8.71926C14.0411 8.70403 13.2536 8.48597 12.5182 7.93463C12.1768 7.61457 11.9258 7.25105 11.673 6.87323C11.5282 6.64132 11.5282 6.64132 11.3379 6.48444ZM9.14061 18.0469C9.13933 18.1333 9.13805 18.2196 9.13673 18.3086C9.13164 18.6288 9.12485 18.9489 9.11755 19.2691C9.11462 19.4077 9.11216 19.5463 9.11017 19.6849C9.10722 19.8841 9.10262 20.0832 9.0977 20.2824C9.09714 20.3444 9.09658 20.4064 9.096 20.4703C9.08915 20.698 9.08112 20.8894 8.96082 21.0935C8.6865 21.2187 8.40656 21.2064 8.10515 21.2064C8.03759 21.2075 7.97003 21.2085 7.90041 21.2095C7.68393 21.2127 7.46747 21.2144 7.25097 21.2159C5.29937 21.2002 5.29937 21.2002 3.61964 21.9999C3.1002 22.4894 2.89855 23.0944 2.81249 23.7501C2.80468 23.8094 2.79687 23.8687 2.78882 23.9299C2.6704 24.855 2.6704 24.855 3.01368 25.7026C3.23061 25.9379 3.47407 26.1477 3.72251 26.3565C3.95726 26.5641 4.15156 26.7967 4.35057 27.0313C4.72339 27.4604 5.11369 27.8734 5.51283 28.2832C5.82499 28.6042 6.12675 28.9311 6.42287 29.264C6.8046 29.6916 7.19686 30.1117 7.58708 30.5332C7.65381 30.6054 7.72054 30.6776 7.7893 30.752C7.87801 30.8478 7.87801 30.8478 7.96851 30.9455C8.17382 31.1719 8.17382 31.1719 8.2924 31.3446C8.49385 31.6183 8.65334 31.8345 9.01124 31.9415C9.2816 31.9677 9.54255 31.9719 9.81451 31.9685C9.9162 31.97 10.0179 31.9715 10.1227 31.973C10.458 31.9769 10.7931 31.9756 11.1285 31.9739C11.303 31.9746 11.4776 31.9752 11.6522 31.9762C12.2009 31.9791 12.7495 31.9783 13.2981 31.9753C13.8625 31.9722 14.4266 31.9749 14.991 31.9803C15.4771 31.9849 15.963 31.986 16.4491 31.9845C16.7387 31.9836 17.0282 31.9843 17.3179 31.9874C18.5441 32.0606 18.5441 32.0606 19.6436 31.6916C19.8472 31.4732 19.9835 31.2679 20.1269 31.0157C20.2554 30.87 20.3869 30.7265 20.5224 30.586C20.6203 30.4797 20.6203 30.4797 20.7202 30.3712C23.6865 27.1485 23.6865 27.1485 23.8829 26.9352C24.0194 26.7869 24.1558 26.6386 24.2921 26.4902C24.3606 26.4158 24.429 26.3414 24.4995 26.2647C24.5607 26.1981 24.6219 26.1316 24.6849 26.063C24.873 25.8594 24.873 25.8594 25.1137 25.6495C25.4094 25.3332 25.3678 24.9882 25.3509 24.5948C25.349 24.5215 25.3471 24.4482 25.3451 24.3727C25.3128 23.4378 25.211 22.6344 24.4236 21.9474C23.6125 21.3534 22.7847 21.2426 21.757 21.2336C21.616 21.2314 21.4751 21.2292 21.3341 21.2269C21.114 21.2236 20.8939 21.2207 20.6739 21.2187C20.4599 21.2166 20.2461 21.213 20.0322 21.2092C19.9663 21.2089 19.9003 21.2087 19.8324 21.2084C19.5874 21.2032 19.3837 21.1937 19.1634 21.0934C19.013 20.8362 19.0298 20.5658 19.0273 20.2824C19.0257 20.2185 19.0241 20.1547 19.0225 20.0889C19.0177 19.8852 19.0148 19.6814 19.0118 19.4776C19.0089 19.3394 19.0059 19.2012 19.0027 19.063C18.9953 18.7243 18.9894 18.3857 18.9844 18.0469C18.89 18.1186 18.7957 18.1904 18.7015 18.2621C18.645 18.305 18.5886 18.3479 18.5305 18.3921C18.407 18.4867 18.2848 18.5825 18.1631 18.679C16.6773 19.8107 14.9091 20.044 13.0078 19.9219C11.6388 19.7764 10.4786 19.1434 9.51793 18.2987C9.33472 18.1234 9.33472 18.1234 9.14061 18.0469ZM4.65819 33.9844C4.51317 34.1907 4.36815 34.3969 4.21874 34.6094C4.21874 35.5633 4.21874 36.5173 4.21874 37.5001C10.7156 37.5001 17.2125 37.5001 23.9062 37.5001C24.1146 35.0015 24.1146 35.0015 22.8516 33.2032C22.6777 33.0487 22.335 33.1112 22.0972 33.1099C22.0265 33.1092 21.9559 33.1085 21.8831 33.1078C21.6445 33.1057 21.4059 33.1041 21.1674 33.1026C20.997 33.1012 20.8267 33.0998 20.6564 33.0983C19.0996 33.0859 17.5428 33.0793 15.9859 33.0741C14.8347 33.0702 13.6836 33.0635 12.5324 33.0531C11.7235 33.0461 10.9146 33.0424 10.1057 33.041C9.62235 33.0401 9.13913 33.0378 8.65581 33.0318C8.20078 33.0263 7.74595 33.0248 7.29087 33.0264C7.12406 33.0263 6.95724 33.0247 6.79046 33.0216C5.70614 33.002 5.17805 33.0581 4.65819 33.9844Z" fill="#4A4A4A"/>
<path d="M22.5 1.25005C25.1364 1.24293 27.7729 1.2374 30.4093 1.2341C30.7205 1.23371 31.0316 1.2333 31.3427 1.23289C31.4046 1.23281 31.4666 1.23272 31.5304 1.23264C32.5339 1.23128 33.5373 1.22882 34.5408 1.22594C35.5701 1.22302 36.5994 1.22129 37.6288 1.22065C38.2071 1.22024 38.7854 1.21928 39.3636 1.21701C39.9076 1.2149 40.4515 1.21424 40.9954 1.21471C41.1954 1.21462 41.3954 1.214 41.5953 1.2128C41.8677 1.21126 42.1401 1.21162 42.4125 1.21248C42.4921 1.21156 42.5718 1.21065 42.6539 1.20972C42.7269 1.21034 42.7998 1.21096 42.875 1.2116C42.9379 1.21148 43.0007 1.21136 43.0655 1.21124C43.3284 1.269 43.4317 1.37252 43.5938 1.56255C43.6378 1.77333 43.6378 1.77333 43.638 2.01985C43.6389 2.1139 43.6398 2.20794 43.6408 2.30484C43.64 2.40933 43.6392 2.51382 43.6384 2.61831C43.6388 2.72921 43.6394 2.84011 43.6401 2.95101C43.6415 3.25613 43.6408 3.56122 43.6397 3.86634C43.6389 4.19525 43.6401 4.52415 43.6411 4.85306C43.6427 5.49753 43.6423 6.14199 43.6413 6.78647C43.6405 7.31012 43.6404 7.83377 43.6408 8.35743C43.6408 8.43188 43.6409 8.50634 43.641 8.58305C43.6411 8.73429 43.6412 8.88553 43.6413 9.03678C43.6423 10.4558 43.6411 11.8749 43.6393 13.294C43.6377 14.5123 43.638 15.7306 43.6396 16.9489C43.6415 18.3628 43.6422 19.7767 43.6411 21.1906C43.641 21.3413 43.6409 21.492 43.6408 21.6427C43.6407 21.7539 43.6407 21.7539 43.6406 21.8674C43.6403 22.3906 43.6408 22.9137 43.6417 23.4369C43.6427 24.0743 43.6424 24.7116 43.6405 25.349C43.6396 25.6744 43.6392 25.9997 43.6404 26.325C43.6414 26.6227 43.6409 26.9203 43.639 27.2179C43.6386 27.3258 43.6388 27.4336 43.6397 27.5415C43.6407 27.6878 43.6394 27.834 43.638 27.9803C43.6379 28.0616 43.6379 28.143 43.6378 28.2268C43.5819 28.4942 43.483 28.5868 43.2422 28.7501C43.0068 28.7801 42.8077 28.791 42.5726 28.7876C42.5048 28.7879 42.4371 28.7882 42.3672 28.7884C42.14 28.789 41.9128 28.7872 41.6855 28.7855C41.5226 28.7854 41.3598 28.7855 41.1969 28.7857C40.7546 28.7858 40.3123 28.7839 39.87 28.7817C39.4078 28.7798 38.9457 28.7796 38.4835 28.7792C37.6082 28.7783 36.7329 28.7757 35.8576 28.7726C34.8612 28.7691 33.8647 28.7673 32.8683 28.7658C30.8184 28.7625 28.7686 28.757 26.7188 28.7501C26.7188 28.3376 26.7188 27.9251 26.7188 27.5001C31.4174 27.4743 36.116 27.4485 40.957 27.4219C39.3616 25.7553 39.3616 25.7553 37.4401 25.4847C37.342 25.4886 37.2438 25.4925 37.1427 25.4965C37.0298 25.5 36.917 25.5034 36.8007 25.507C36.6274 25.5126 36.6274 25.5126 36.4506 25.5182C36.209 25.5207 35.9674 25.5205 35.7258 25.5204C35.1603 25.5215 34.5955 25.5314 34.0302 25.5446C33.3853 25.5592 32.7405 25.5638 32.0955 25.5677C30.7717 25.5759 29.4485 25.5967 28.125 25.6251C28.125 25.2126 28.125 24.8001 28.125 24.3751C31.6055 24.3751 35.0859 24.3751 38.6719 24.3751C38.6429 22.854 38.6139 21.3329 38.584 19.7657C37.4659 19.0163 37.4659 19.0163 36.3208 18.3057C35.6832 17.9228 35.0634 17.5258 34.4531 17.1094C33.5088 17.5272 32.5674 17.9497 31.6296 18.379C31.567 18.4076 31.5044 18.4362 31.4399 18.4657C30.6561 18.8246 29.8757 19.1882 29.1028 19.5655C29.0273 19.6023 28.9518 19.6391 28.874 19.677C28.5744 19.8232 28.2749 19.9696 27.9758 20.1166C27.7441 20.23 27.5117 20.3422 27.2791 20.4542C27.1751 20.5057 27.1751 20.5057 27.069 20.5582C27.0048 20.5888 26.9407 20.6194 26.8746 20.651C26.7909 20.6918 26.7909 20.6918 26.7055 20.7333C26.4982 20.7945 26.3925 20.775 26.1914 20.7032C26.0386 20.5185 26.0386 20.5185 25.9003 20.2881C25.8535 20.2127 25.8067 20.1373 25.7585 20.0596C25.6549 19.8228 25.6442 19.76 25.752 19.5313C25.9152 19.4241 25.9152 19.4241 26.1258 19.3299C26.2009 19.2956 26.2759 19.2614 26.3533 19.2261C26.4322 19.1915 26.5111 19.1568 26.5924 19.1211C26.6717 19.0853 26.7509 19.0494 26.8326 19.0125C27.0285 18.924 27.2249 18.8366 27.4219 18.7501C27.4425 18.5609 27.4425 18.5609 27.1774 18.3756C27.0689 18.2868 26.96 18.1984 26.8506 18.1104C26.7658 18.0414 26.7658 18.0414 26.6794 17.9711C26.2873 17.6527 25.8908 17.3392 25.4883 17.0313C25.3564 16.9289 25.2245 16.8263 25.0928 16.7237C25.0044 16.655 25.0044 16.655 24.9142 16.5848C24.8716 16.5517 24.829 16.5186 24.7852 16.4844C25.0466 16.1179 25.3401 15.7933 25.6641 15.4688C26.0659 15.5662 26.2752 15.7631 26.554 16.0221C26.7687 16.2174 26.9988 16.3934 27.2313 16.5717C27.4437 16.7357 27.6526 16.9027 27.8613 17.0704C28.2389 17.3733 28.62 17.6723 29.0039 17.9688C29.9082 17.5726 30.8055 17.1644 31.701 16.753C31.7546 16.7284 31.8082 16.7038 31.8634 16.6785C31.9697 16.6297 32.0758 16.5809 32.182 16.5321C32.3383 16.4602 32.4947 16.3885 32.6512 16.3169C32.8596 16.2187 33.0636 16.1193 33.2672 16.0139C34.2398 15.5184 34.2398 15.5184 34.8047 15.6251C35.0902 15.7503 35.3399 15.9065 35.5957 16.0743C35.6679 16.1199 35.7401 16.1655 35.8145 16.2125C36.3482 16.5518 36.8755 16.9 37.3961 17.2551C37.8118 17.538 38.2331 17.7869 38.6719 18.0469C38.6719 13.9477 38.6719 9.84849 38.6719 5.62505C34.2633 5.62505 29.8547 5.62505 25.3125 5.62505C25.3125 5.21255 25.3125 4.80005 25.3125 4.37505C25.48 4.37789 25.6475 4.38073 25.82 4.38365C27.4051 4.40937 28.99 4.42597 30.5754 4.43355C31.3903 4.43767 32.2049 4.44495 33.0196 4.45997C33.7307 4.47307 34.4415 4.47994 35.1528 4.47966C35.5288 4.47973 35.904 4.48267 36.2798 4.49312C36.6355 4.50291 36.9901 4.5042 37.3459 4.49965C37.4746 4.49937 37.6035 4.50191 37.7321 4.50786C38.249 4.53039 38.4806 4.44805 39.0234 4.29693C39.6615 3.72974 40.2996 3.16255 40.957 2.57818C34.8662 2.5524 28.7754 2.52662 22.5 2.50005C22.5 2.08755 22.5 1.67505 22.5 1.25005ZM40.8158 4.3757C39.4475 5.65909 39.7857 7.70942 39.8066 9.34795C39.8102 9.66502 39.8095 9.98201 39.8076 10.2991C39.8073 10.3521 39.807 10.4051 39.8067 10.4597C39.806 10.5675 39.8054 10.6753 39.8047 10.783C39.799 11.7883 39.8055 12.7932 39.8164 13.7984C39.8255 14.6567 39.8239 15.5145 39.8146 16.3728C39.8037 17.375 39.7995 18.3769 39.8057 19.3791C39.8064 19.4864 39.807 19.5937 39.8076 19.701C39.8079 19.7538 39.8082 19.8066 39.8086 19.8609C39.8103 20.2288 39.8073 20.5965 39.8026 20.9643C39.6491 23.4668 39.6491 23.4668 40.8158 25.6244C41.4352 26.1915 41.4352 26.1915 42.1875 26.4844C42.1875 18.9047 42.1875 11.3251 42.1875 3.51568C41.733 3.51568 41.1374 4.10163 40.8158 4.3757Z" fill="#4A4A4A"/>
<path d="M16.2409 20.5366C16.34 20.5369 16.34 20.5369 16.441 20.5372C16.5377 20.5369 16.5377 20.5369 16.6364 20.5366C16.9534 20.5504 17.2636 20.5878 17.5781 20.6251C17.5447 20.8223 17.5097 21.0191 17.4738 21.2159C17.4649 21.2695 17.456 21.323 17.4468 21.3781C17.331 21.9987 17.1078 22.5043 16.875 23.1251C18.0352 23.1251 19.1953 23.1251 20.3906 23.1251C20.3906 23.5376 20.3906 23.9501 20.3906 24.3751C20.1988 24.3789 20.007 24.3828 19.8094 24.3867C19.6203 24.391 19.4312 24.3954 19.2421 24.3999C19.1123 24.4029 18.9825 24.4056 18.8527 24.4081C17.0603 24.4243 17.0603 24.4243 15.5697 25.226C15.0092 25.8493 14.8965 26.4904 14.837 27.2657C14.8298 27.3486 14.8226 27.4315 14.8152 27.5169C14.7978 27.7196 14.7816 27.9223 14.7656 28.1251C14.3016 28.1251 13.8375 28.1251 13.3594 28.1251C13.3508 28.0045 13.3422 27.8838 13.3333 27.7595C13.3201 27.5982 13.3068 27.4368 13.2935 27.2755C13.2853 27.1568 13.2853 27.1568 13.277 27.0356C13.2126 26.2913 13.0163 25.6086 12.3926 25.0782C11.3949 24.4099 10.2807 24.4273 9.0802 24.4044C8.94911 24.4014 8.81801 24.3984 8.68692 24.3953C8.36942 24.3877 8.05192 24.3815 7.73438 24.3751C7.73438 23.9626 7.73438 23.5501 7.73438 23.1251C8.24077 23.1173 8.74712 23.1117 9.25358 23.108C9.42542 23.1064 9.59725 23.1043 9.76908 23.1015C11.2669 23.0784 12.4053 23.2019 13.5506 24.1414C13.6955 24.2688 13.8368 24.3979 13.9746 24.5314C15.1775 23.5253 15.618 22.1594 15.9527 20.771C16.0083 20.5842 16.022 20.5511 16.2409 20.5366Z" fill="#4A4A4A"/>
<path d="M32.2047 9.1803C32.9784 9.67564 33.5599 10.3308 33.75 11.1719C33.8676 12.142 33.7742 12.9991 33.1183 13.8086C32.5195 14.4403 31.7896 14.9268 30.8434 15.0174C29.7086 15.0874 28.7622 14.9651 27.8672 14.2947C27.1185 13.6595 26.7185 12.9837 26.6774 12.0597C26.6638 11.0821 26.9114 10.3302 27.6855 9.60937C28.8967 8.58164 30.7709 8.38556 32.2047 9.1803ZM28.5157 10.8517C28.1531 11.3195 28.15 11.7929 28.2129 12.3437C28.3688 12.8629 28.7795 13.2167 29.2676 13.5156C29.7948 13.7454 30.3999 13.7577 30.965 13.6237C31.5036 13.4123 31.9253 13.0149 32.1831 12.5476C32.3506 12.0784 32.3494 11.5232 32.124 11.0693C31.8178 10.6053 31.3388 10.2409 30.7617 10.0781C29.7567 9.97216 29.164 10.1776 28.5157 10.8517Z" fill="#4A4A4A"/>
<path d="M14.0625 10C14.5266 10 14.9906 10 15.4688 10C15.4769 10.3336 15.4839 10.6668 15.4881 11.0004C15.4898 11.1136 15.4922 11.2268 15.4953 11.34C15.5146 12.075 15.5196 12.6387 14.9445 13.222C14.8873 13.2641 14.8301 13.3062 14.7711 13.3496C14.6856 13.4146 14.6856 13.4146 14.5984 13.4808C14.1718 13.7421 13.7952 13.7709 13.288 13.7598C13.0795 13.7565 12.871 13.7533 12.6562 13.75C12.6562 13.3375 12.6562 12.925 12.6562 12.5C12.8994 12.4669 13.1426 12.4339 13.3858 12.4008C13.6385 12.34 13.7319 12.2934 13.8867 12.1094C13.976 11.8713 13.992 11.6916 14.0024 11.442C14.0061 11.3581 14.0098 11.2743 14.0136 11.1879C14.017 11.1004 14.0205 11.013 14.024 10.9229C14.0278 10.8345 14.0316 10.7461 14.0355 10.6551C14.0449 10.4367 14.0537 10.2184 14.0625 10Z" fill="#4A4A4A"/>
<path d="M12.041 14.7656C12.1667 14.8873 12.1667 14.8873 12.2937 15.0341C12.6508 15.4165 12.9934 15.4796 13.5352 15.5468C13.8682 15.567 14.2014 15.5791 14.5349 15.5908C14.6248 15.5942 14.7146 15.5975 14.8072 15.601C15.0277 15.6092 15.2482 15.6171 15.4688 15.625C15.4688 16.0375 15.4688 16.45 15.4688 16.875C15.0967 16.8822 14.725 16.8884 14.353 16.8921C14.2268 16.8937 14.1007 16.8958 13.9745 16.8985C12.8788 16.9216 11.9888 16.7845 11.1621 16.0937C10.8978 15.824 10.6748 15.5754 10.5469 15.2343C10.746 15.1406 10.9455 15.048 11.1456 14.956C11.2021 14.9293 11.2586 14.9025 11.3168 14.875C11.7475 14.6786 11.7475 14.6786 12.041 14.7656Z" fill="#4A4A4A"/>
<path d="M17.2266 10.0001C17.4463 10.1172 17.4463 10.1172 17.5781 10.3126C17.6476 10.6267 17.6328 10.8566 17.4463 11.1329C17.1355 11.2986 16.8768 11.3119 16.5234 11.2501C16.3037 11.1329 16.3037 11.1329 16.1719 10.9376C16.1024 10.6234 16.1172 10.3935 16.3037 10.1172C16.6145 9.9515 16.8732 9.93826 17.2266 10.0001Z" fill="#4A4A4A"/>
<path d="M11.6016 10.0001C11.8213 10.1172 11.8213 10.1172 11.9531 10.3126C12.0226 10.6267 12.0078 10.8566 11.8213 11.1329C11.5105 11.2986 11.2518 11.3119 10.8984 11.2501C10.6787 11.1329 10.6787 11.1329 10.5469 10.9376C10.4774 10.6234 10.4922 10.3935 10.6787 10.1172C10.9895 9.9515 11.2482 9.93826 11.6016 10.0001Z" fill="#4A4A4A"/>
</svg>
