<svg width="33" height="40" viewBox="0 0 33 40" fill="none" xmlns="http://www.w3.org/2000/svg">
<path d="M2.92092 0.648438C2.03323 0.914062 1.33889 1.42188 0.960963 2.08594C0.169947 3.46094 0.864283 5.17969 2.46389 5.82812C2.92971 6.01562 3.12307 6.04688 3.75588 6.04688C4.37991 6.05469 4.58206 6.01562 5.00393 5.84375C5.6719 5.57031 6.30471 5 6.56838 4.42969L6.77932 3.98438H10.1367H13.4942L13.5557 4.19531C13.7315 4.82031 14.4434 5.50781 15.2608 5.84375C15.9639 6.14062 17.0362 6.14062 17.7393 5.84375C18.5567 5.50781 19.2686 4.82031 19.4444 4.19531L19.5059 3.98438H22.8633H26.2207L26.4317 4.42969C26.6953 5 27.3281 5.57031 27.9961 5.84375C28.418 6.01562 28.6201 6.05469 29.2442 6.04688C29.877 6.04688 30.0703 6.01562 30.5362 5.82812C31.1338 5.58594 31.749 5.07031 32.0391 4.5625C32.8301 3.1875 32.1446 1.46875 30.5362 0.8125C30.0703 0.617188 29.8858 0.585938 29.2442 0.585938C28.5762 0.585938 28.4268 0.617188 27.9082 0.84375C27.2139 1.14844 26.7041 1.61719 26.4229 2.23438L26.2207 2.65625H22.8809H19.5323L19.374 2.27344C19.1543 1.72656 18.5391 1.14844 17.836 0.84375C17.3174 0.609375 17.168 0.585938 16.5 0.585938C15.8321 0.585938 15.6826 0.609375 15.1641 0.84375C14.461 1.14844 13.8457 1.72656 13.626 2.27344L13.4678 2.65625H10.1192H6.77932L6.57717 2.23438C6.12893 1.26562 5.12698 0.640625 3.92288 0.578125C3.51858 0.5625 3.14065 0.585938 2.92092 0.648438ZM4.35354 1.91406C5.82131 2.46094 5.73342 4.39062 4.21292 4.76562C3.71194 4.88281 3.48342 4.85938 2.98245 4.64062C1.40042 3.94531 1.96292 1.83594 3.73831 1.80469C3.89651 1.79688 4.16897 1.85156 4.35354 1.91406ZM17.1592 1.94531C17.8272 2.21875 18.1699 2.6875 18.1699 3.32031C18.1699 3.95312 17.8272 4.42188 17.1592 4.69531C16.5176 4.96094 15.7617 4.8125 15.252 4.32812C14.9532 4.03906 14.8301 3.75 14.8301 3.32031C14.8301 3.13281 14.874 2.88281 14.9268 2.75781C15.1377 2.25781 15.8848 1.79688 16.5 1.79688C16.667 1.79688 16.9658 1.86719 17.1592 1.94531ZM29.7803 1.89062C30.8262 2.21094 31.2656 3.25 30.7119 4.08594C30.4571 4.46094 29.7715 4.84375 29.3408 4.84375C28.6553 4.84375 28.0137 4.48438 27.7412 3.94531C27.126 2.75 28.4004 1.46875 29.7803 1.89062Z" fill="#4A4A4A"/>
<path d="M2.68359 9.875C2.04199 10.1094 1.5498 10.4531 1.22461 10.9219C0.688477 11.6719 0.679688 11.7344 0.679688 16.1328C0.679688 20.5078 0.688477 20.6016 1.19824 21.2266C1.33887 21.3984 3.1582 22.8281 5.24121 24.4062L9.02051 27.2734L9.04688 33.1719L9.07324 39.0781L9.31934 39.2656L9.56543 39.4531H16.5088H23.4521L23.6631 39.2578L23.8828 39.0703V33.2188C23.8828 27.75 23.8916 27.3516 24.041 27.2031C24.1201 27.1172 25.3418 26.1875 26.7393 25.1406C31.2041 21.8047 31.5469 21.5391 31.8018 21.2266C32.3115 20.6016 32.3203 20.5078 32.3203 16.1328C32.3203 11.7344 32.3115 11.6719 31.7754 10.9219C30.6064 9.28125 27.7061 9.28125 26.5371 10.9219C26.0186 11.6406 25.9922 11.8438 25.9922 15.0781C25.9922 16.9844 25.957 18.1094 25.8955 18.2656C25.8252 18.4375 25.0166 19.1094 22.9336 20.6875C21.3516 21.8828 19.9717 22.9062 19.8662 22.9531C19.7344 23.0234 18.75 23.0469 16.4824 23.0469C13.626 23.0469 13.2656 23.0312 13.0723 22.9141C12.9492 22.8438 11.5781 21.8203 10.0225 20.6484C7.95703 19.0859 7.1748 18.4453 7.10449 18.2656C7.04297 18.1094 7.00781 17 7.00781 15.0781C7.00781 12.625 6.98145 12.0703 6.86719 11.7109C6.46289 10.4688 5.29395 9.6875 3.84375 9.6875C3.35156 9.6875 3.05273 9.73438 2.68359 9.875ZM4.63477 11.1094C4.86328 11.2188 5.13574 11.4297 5.29395 11.625L5.55762 11.9688L5.60156 15.2188C5.64551 18.7344 5.64551 18.6797 6.14648 19.2734C6.43652 19.6094 12.0615 23.875 12.501 24.0859C12.8438 24.2578 12.9229 24.2578 16.5 24.2578C20.0684 24.2578 20.1562 24.2578 20.499 24.0859C20.9297 23.8828 26.5635 19.6094 26.8535 19.2734C27.3545 18.6797 27.3545 18.7344 27.3984 15.2188L27.4424 11.9688L27.7061 11.625C28.4443 10.6953 29.8682 10.6953 30.6064 11.625L30.8701 11.9688V16.0938C30.8701 20.1484 30.8701 20.2266 30.6855 20.4453C30.5889 20.5625 28.9189 21.8594 26.9766 23.3203C25.043 24.7812 23.2939 26.1172 23.1006 26.2812C22.459 26.8438 22.4766 26.6406 22.4766 32.75V38.2031H16.5H10.5322L10.5059 32.6797L10.4795 27.1484L10.2773 26.7812C10.1016 26.4688 9.47754 25.9688 6.34863 23.5938C4.30078 22.0469 2.52539 20.6719 2.40234 20.5469C2.2793 20.4141 2.15625 20.1953 2.12988 20.0547C2.10352 19.9141 2.08594 18.0391 2.10352 15.8828L2.12988 11.9688L2.39355 11.625C2.92969 10.9531 3.82617 10.75 4.63477 11.1094Z" fill="#4A4A4A"/>
<path d="M15.0498 11.7109C14.1797 11.9297 13.4326 12.3359 12.7207 12.9688C10.5762 14.8672 10.5147 17.9375 12.5713 19.8984C13.6699 20.9453 14.918 21.4297 16.5 21.4297C18.082 21.4297 19.3301 20.9453 20.4287 19.8984C22.0371 18.3672 22.3799 16.1641 21.3076 14.2188C20.6485 13.0078 19.2861 12.0156 17.8535 11.6875C17.124 11.5234 15.7442 11.5312 15.0498 11.7109ZM18.1875 13.1406C19.8311 13.8672 20.7803 15.5156 20.4639 17.1094C20.3057 17.8672 19.8574 18.6406 19.2598 19.1719C17.7305 20.5312 15.2695 20.5312 13.7403 19.1719C11.5254 17.2031 12.3604 13.8828 15.3135 12.9453C15.6475 12.8438 15.9639 12.8125 16.6406 12.8281C17.458 12.8516 17.5811 12.875 18.1875 13.1406Z" fill="#4A4A4A"/>
</svg>
