<svg width="72" height="68" viewBox="0 0 72 68" fill="none" xmlns="http://www.w3.org/2000/svg">
<ellipse cx="36" cy="34" rx="36" ry="34" fill="#98A9D4"/>
<g clip-path="url(#clip0_343_1682)">
<path d="M35.4381 10.9688C35.5712 10.9689 35.5712 10.9689 35.7069 10.9689C37.1585 10.9725 38.5562 11.0541 39.9809 11.3533C40.0702 11.3717 40.1594 11.3901 40.2513 11.409C43.5159 12.1026 46.5801 13.518 49.2094 15.5721C49.2949 15.6388 49.3803 15.7055 49.4683 15.7743C50.82 16.8584 52.0991 18.0713 53.1645 19.4393C53.2653 19.5626 53.2653 19.5626 53.3681 19.6885C56.4116 23.4893 58.0371 28.3671 58.0262 33.2141C58.026 33.4725 58.028 33.7308 58.0303 33.9891C58.0342 35.1645 57.9282 36.2979 57.7348 37.4568C57.71 37.6067 57.71 37.6067 57.6847 37.7597C56.7424 43.0057 53.671 48.1374 49.3607 51.3188C49.2099 51.4311 49.0618 51.5462 48.9138 51.6622C46.1937 53.7636 42.9071 55.1094 39.5415 55.7381C39.4707 55.7523 39.4 55.7666 39.3271 55.7813C36.6863 56.2976 33.6413 56.2016 31.0161 55.6502C30.8822 55.6226 30.8822 55.6226 30.7457 55.5945C27.491 54.903 24.4041 53.4905 21.7876 51.4314C21.7024 51.3648 21.6172 51.2982 21.5294 51.2296C20.1771 50.1462 18.8979 48.9322 17.8325 47.5643C17.7317 47.4409 17.7317 47.4409 17.6289 47.315C15.3801 44.5067 13.929 41.0643 13.2622 37.5447C13.2478 37.4736 13.2334 37.4025 13.2186 37.3292C12.7378 34.8694 12.7485 31.9114 13.2622 29.4588C13.2796 29.3731 13.2971 29.2874 13.3151 29.1992C14.0313 25.7752 15.3978 22.5496 17.5688 19.7908C17.6354 19.7056 17.7021 19.6204 17.7707 19.5326C18.8538 18.1806 20.0678 16.9003 21.436 15.8357C21.5624 15.7334 21.5624 15.7334 21.6914 15.6291C25.5903 12.5277 30.4866 10.9587 35.4381 10.9688ZM26.4458 16.2752C26.3876 16.3061 26.3294 16.337 26.2695 16.3689C24.6399 17.2363 23.2143 18.3473 21.8755 19.615C21.7937 19.6921 21.7119 19.7691 21.6276 19.8485C20.9994 20.457 20.4643 21.1127 19.9419 21.8123C19.9039 21.8625 19.8659 21.9127 19.8268 21.9644C19.2731 22.6994 18.7974 23.4617 18.3652 24.2739C18.3049 24.3872 18.2438 24.5002 18.1821 24.6128C17.2826 26.2552 16.6917 28.0633 16.3383 29.8982C16.3241 29.9688 16.3098 30.0393 16.2951 30.112C15.4657 34.368 16.3129 38.944 18.3598 42.7303C18.3879 42.7829 18.416 42.8355 18.4449 42.8897C19.2868 44.4578 20.3911 45.8357 21.6118 47.1248C21.6888 47.2066 21.7659 47.2884 21.8452 47.3727C22.4537 48.0009 23.1095 48.5359 23.8091 49.0584C23.8593 49.0964 23.9095 49.1343 23.9612 49.1735C24.6961 49.7271 25.4585 50.2028 26.2706 50.635C26.384 50.6954 26.497 50.7564 26.6096 50.8182C28.252 51.7177 30.06 52.3086 31.895 52.6619C31.9655 52.6762 32.036 52.6904 32.1087 52.7051C36.3647 53.5346 40.9407 52.6874 44.727 50.6404C44.7796 50.6124 44.8322 50.5843 44.8864 50.5554C46.4545 49.7134 47.8324 48.6091 49.1216 47.3885C49.2034 47.3114 49.2851 47.2344 49.3694 47.155C49.9976 46.5465 50.5327 45.8908 51.0551 45.1912C51.0931 45.141 51.1311 45.0908 51.1702 45.0391C51.7239 44.3041 52.1996 43.5418 52.6318 42.7296C52.6921 42.6163 52.7532 42.5033 52.8149 42.3907C53.7144 40.7483 54.3053 38.9403 54.6587 37.1053C54.6729 37.0347 54.6872 36.9642 54.7019 36.8916C55.5313 32.6355 54.6841 28.0596 52.6372 24.2732C52.6091 24.2206 52.581 24.168 52.5521 24.1138C51.7102 22.5458 50.6059 21.1678 49.3852 19.8787C49.3082 19.7969 49.2311 19.7151 49.1518 19.6308C48.5433 19.0027 47.8858 18.4697 47.188 17.9451C47.1065 17.8827 47.025 17.8203 46.9411 17.7559C44.316 15.7862 41.1851 14.6498 37.9594 14.1658C37.872 14.1521 37.872 14.1521 37.7828 14.1382C33.9382 13.6202 29.8388 14.4323 26.4458 16.2752Z" fill="white"/>
<path d="M36.12 20.0265C36.5578 20.2615 36.8256 20.5468 37.0018 21.008C37.1308 21.4867 37.0953 21.9772 37.085 22.4687C37.0818 22.6957 37.0787 22.9227 37.0756 23.1497C37.0737 23.2708 37.0718 23.3919 37.0699 23.513C37.0641 23.8896 37.0612 24.2662 37.0589 24.6428C37.0586 24.7066 37.0582 24.7704 37.0578 24.8361C37.0566 25.0324 37.0555 25.2287 37.0544 25.4251C37.0498 26.235 37.0432 27.0448 37.0279 27.8547C37.0168 28.4467 37.0111 29.0385 37.0115 29.6307C37.0115 29.9434 37.0089 30.2555 36.9997 30.568C36.9102 31.9853 36.9102 31.9853 37.4901 33.2123C37.7947 33.4873 38.1207 33.7074 38.4751 33.9129C38.7654 34.0877 39.0217 34.3005 39.2834 34.5147C39.3831 34.5929 39.483 34.6708 39.5831 34.7485C39.9245 35.0159 40.2604 35.2897 40.5963 35.5639C41.0324 35.9198 41.471 36.2721 41.9146 36.6186C42.3735 36.9775 42.8293 37.3401 43.2824 37.7062C43.3411 37.7533 43.3997 37.8004 43.4601 37.8489C44.4255 38.6316 44.4255 38.6316 44.5514 39.1235C44.6063 39.6815 44.5183 40.0643 44.1998 40.5297C43.8435 40.8769 43.5188 41.0387 43.0243 41.0845C42.353 41.0267 41.9222 40.6877 41.4258 40.266C41.3012 40.1625 41.1766 40.059 41.0519 39.9557C40.99 39.9041 40.9281 39.8526 40.8644 39.7995C40.603 39.5839 40.3364 39.3754 40.0689 39.1674C39.5643 38.7736 39.0673 38.3712 38.5714 37.9665C38.1455 37.6196 37.7153 37.2789 37.2822 36.941C36.8242 36.5827 36.3739 36.2151 35.9246 35.8459C35.5641 35.5513 35.1961 35.2745 34.8175 35.0036C34.2788 34.6046 34.0242 34.2573 33.9166 33.5864C33.9085 33.4161 33.9048 33.2455 33.9043 33.075C33.9037 32.9728 33.9032 32.8705 33.9027 32.7652C33.9026 32.6538 33.9025 32.5423 33.9024 32.4276C33.902 32.3084 33.9016 32.1893 33.9011 32.0701C33.9 31.7471 33.8994 31.424 33.899 31.1009C33.8987 30.8988 33.8984 30.6967 33.898 30.4946C33.8968 29.8615 33.8959 29.2284 33.8956 28.5953C33.8952 27.8659 33.8937 27.1365 33.8911 26.4071C33.8892 25.8423 33.8883 25.2776 33.8882 24.7128C33.8881 24.376 33.8876 24.0391 33.886 23.7023C33.8846 23.3851 33.8844 23.068 33.8852 22.7509C33.8853 22.58 33.8841 22.4092 33.8828 22.2384C33.8859 21.5794 33.9047 20.9242 34.3313 20.389C34.383 20.3501 34.4347 20.3111 34.4879 20.2709C34.5395 20.2301 34.5912 20.1894 34.6444 20.1473C35.0653 19.8795 35.6548 19.865 36.12 20.0265Z" fill="white"/>
</g>
<defs>
<clipPath id="clip0_343_1682">
<rect width="45" height="45" fill="white" transform="translate(13 11)"/>
</clipPath>
</defs>
</svg>
