<svg width="73" height="72" viewBox="0 0 73 72" fill="none" xmlns="http://www.w3.org/2000/svg">
<rect x="0.75" width="72" height="72" rx="36" fill="#98A9D4"/>
<path d="M24.9127 17.8047C24.5172 17.8828 24.2008 18.0859 24.0074 18.375C23.8404 18.6172 23.8316 18.7969 23.8316 22.7031V26.7891H20.7994H17.7584L17.5474 26.9844L17.3277 27.1719V37.9844V48.8047L16.3082 48.8359C14.8843 48.875 14.9283 48.8125 14.9722 50.6562C14.9986 52.0078 15.0074 52.0781 15.2447 52.5312C15.5699 53.1484 16.2467 53.75 16.9234 54.0312L17.4595 54.25H36.7515H56.0435L56.6148 54.0078C57.3355 53.7031 57.8804 53.2188 58.232 52.5703C58.5045 52.0703 58.5045 52.0469 58.5308 50.6562C58.5748 48.8203 58.6099 48.875 57.2388 48.8359L56.2633 48.8047V37.9844V27.1719L56.0435 26.9844L55.8326 26.7891H52.7476H49.6715V22.6953V18.6094L49.4693 18.3516C49.3638 18.2031 49.1353 18.0156 48.9683 17.9297C48.6607 17.7656 48.5904 17.7656 36.9273 17.75C30.4761 17.75 25.0621 17.7656 24.9127 17.8047ZM48.3531 24.1328V29.2891H47.4918C46.358 29.2891 46.3228 29.3203 46.0679 30.5391C45.9625 31.0312 45.8658 31.4844 45.8394 31.5469C45.8131 31.625 45.3297 31.25 44.4508 30.4766L43.1148 29.2891H34.1324H25.15V24.1328V18.9766H36.7515H48.3531V24.1328ZM23.8316 28.8359C23.8316 29.7422 23.9547 30.0234 24.4644 30.3047C24.7457 30.4609 24.9302 30.4609 33.6226 30.4609H42.4996L44.231 31.9844C45.8394 33.4062 45.98 33.5078 46.2789 33.5078C46.8677 33.5078 46.9029 33.4375 47.3248 31.4375L47.5181 30.5L48.1861 30.4609C48.9244 30.4141 49.232 30.2812 49.4957 29.8906C49.6363 29.6875 49.6715 29.4922 49.6715 28.8359V28.0391H52.2642H54.857V38.4297V48.8125L48.2388 48.8359L41.6295 48.8594L41.3043 49.0391C40.9439 49.2422 40.6187 49.75 40.6187 50.1328V50.3828H36.7515H32.8843V50.1328C32.8843 49.75 32.5592 49.2422 32.1988 49.0391L31.8736 48.8594L25.2642 48.8359L18.6461 48.8125V38.4297V28.0391H21.2388H23.8316V28.8359ZM31.4781 50.2422C31.4781 50.625 31.8033 51.1328 32.1636 51.3359L32.4888 51.5156H36.7515H41.0142L41.3394 51.3359C41.6998 51.1328 42.025 50.625 42.025 50.2422V49.9922H49.6363H57.2476L57.2125 50.8281C57.1773 51.8047 56.9752 52.2812 56.4742 52.6172C55.8326 53.0547 57.0191 53.0312 36.7515 53.0312C16.484 53.0312 17.6705 53.0547 17.0289 52.6172C16.5279 52.2812 16.3258 51.8047 16.2906 50.8281L16.2554 49.9922H23.8668H31.4781V50.2422Z" fill="white"/>
<path d="M28.0949 21.8273C27.8136 22.0695 27.8136 22.343 28.0861 22.6242L28.297 22.843L36.6378 22.8664C42.8517 22.882 45.0314 22.8586 45.216 22.7961C45.5148 22.6867 45.6554 22.3977 45.5851 22.0852C45.462 21.6086 45.9542 21.632 36.7257 21.632H28.3058L28.0949 21.8273Z" fill="white"/>
<path d="M28.0596 25.5078C27.9541 25.625 27.875 25.7656 27.875 25.8281C27.875 26.0078 28.1211 26.375 28.2705 26.4297C28.3496 26.4531 32.208 26.4766 36.8398 26.4766H45.2686L45.4443 26.2734C45.6816 26.0078 45.6816 25.7734 45.4443 25.5078L45.2686 25.3047H36.752H28.2354L28.0596 25.5078Z" fill="white"/>
<path d="M30.2037 32.4285C28.191 32.6629 26.7232 34.4597 27.066 36.2488C27.1891 36.8894 27.4088 37.3113 27.8922 37.8269C28.0855 38.0379 28.235 38.2097 28.2174 38.2176C28.1998 38.2254 27.9098 38.3582 27.567 38.5066C25.8355 39.2722 24.5084 40.7644 24.0074 42.5222C23.8141 43.2019 23.7701 44.2879 23.9283 44.6551C24.315 45.5847 25.5895 46.2801 27.5143 46.6316C30.8365 47.2332 34.985 46.8113 36.6197 45.7097C37.1822 45.3347 37.6041 44.7801 37.6832 44.3035C37.7623 43.8113 37.5953 42.741 37.3141 42.0066C36.7604 40.5222 35.4332 39.1785 33.8248 38.4597L33.2271 38.1863L33.6227 37.7957C34.2291 37.1941 34.4225 36.6863 34.4225 35.6941C34.4225 34.9363 34.4049 34.8347 34.1412 34.3504C33.4029 32.9597 31.9 32.2254 30.2037 32.4285ZM31.6012 33.7488C32.5504 34.0613 33.2447 35.0535 33.1129 35.9051C32.9986 36.6863 32.4889 37.2957 31.6627 37.6316C30.775 37.9988 29.6148 37.7566 28.9645 37.0847C28.5338 36.6238 28.3844 36.2097 28.4195 35.5769C28.4547 34.8738 28.7711 34.3738 29.4039 33.991C30.1422 33.5535 30.8014 33.4754 31.6012 33.7488ZM32.4449 39.2801C34.5719 39.8894 36.1627 41.6707 36.2857 43.6082L36.3385 44.2879L35.9869 44.5926C35.5475 44.9597 34.7652 45.241 33.5699 45.4754C32.3482 45.7097 29.4039 45.7332 28.1998 45.5144C26.7848 45.2566 25.7389 44.8504 25.3258 44.3894C25.15 44.1941 25.1412 44.116 25.1852 43.6082C25.3961 41.4988 27.1363 39.6863 29.4303 39.1707C30.1598 39.0066 31.6979 39.0613 32.4449 39.2801Z" fill="white"/>
<path d="M40.4939 35.5469C40.1687 35.7734 40.1687 36.2422 40.4939 36.4688C40.7224 36.6328 40.8103 36.6328 44.9675 36.6328C49.1248 36.6328 49.2126 36.6328 49.4412 36.4688C49.6169 36.3438 49.6697 36.2422 49.6697 36.0078C49.6697 35.7734 49.6169 35.6719 49.4412 35.5469C49.2126 35.3828 49.1248 35.3828 44.9675 35.3828C40.8103 35.3828 40.7224 35.3828 40.4939 35.5469Z" fill="white"/>
<path d="M40.4414 39.2109C40.3359 39.3047 40.2656 39.4688 40.2656 39.6406C40.2656 39.8125 40.3359 39.9766 40.4414 40.0703C40.6084 40.2188 40.7314 40.2266 44.9678 40.2266C49.2041 40.2266 49.3271 40.2188 49.4941 40.0703C49.5996 39.9766 49.6699 39.8125 49.6699 39.6406C49.6699 39.4688 49.5996 39.3047 49.4941 39.2109C49.3271 39.0625 49.2041 39.0547 44.9678 39.0547C40.7314 39.0547 40.6084 39.0625 40.4414 39.2109Z" fill="white"/>
<path d="M40.7071 42.7031C40.2149 42.8672 40.0919 43.4531 40.4962 43.7344C40.7247 43.8984 40.8126 43.8984 44.9698 43.8984C49.127 43.8984 49.2149 43.8984 49.4434 43.7344C49.7423 43.5234 49.7686 43.0625 49.4874 42.8359C49.3116 42.6953 49.0919 42.6875 45.0665 42.6719C42.7462 42.6641 40.7774 42.6797 40.7071 42.7031Z" fill="white"/>
</svg>
