<svg width="40" height="40" viewBox="0 0 40 40" fill="none" xmlns="http://www.w3.org/2000/svg">
<path d="M19.5212 0.00908279C16.831 0.0686646 14.1799 0.674229 11.7232 1.78964C9.9259 2.6052 8.20573 3.72452 6.72488 5.04211C6.16907 5.53633 5.53121 6.17413 5.0389 6.72793C2.66817 9.39437 1.05447 12.6498 0.370701 16.1435C-0.123567 18.6722 -0.123567 21.3309 0.370701 23.8596C0.947999 26.8102 2.1866 29.59 3.99761 32.0005C4.58956 32.7887 5.14635 33.4285 5.86919 34.1493C6.24331 34.5234 6.43965 34.708 6.77372 35.0039C9.38084 37.3041 12.5359 38.8835 15.9304 39.5857C17.717 39.9559 19.5827 40.079 21.4259 39.951C24.3915 39.743 27.2819 38.8708 29.8666 37.4008C31.2234 36.6302 32.4698 35.715 33.64 34.6289C33.9975 34.2978 34.6061 33.6736 34.9607 33.2751C36.3517 31.7114 37.5024 29.9113 38.3424 27.9862C39.7041 24.8627 40.2384 21.45 39.9024 18.009C39.6338 15.2645 38.781 12.5697 37.4183 10.166C36.2706 8.13929 34.7741 6.32259 33.0061 4.80868C31.0163 3.10431 28.7315 1.81601 26.2563 1.00143C24.5596 0.442745 22.8326 0.122383 21.0186 0.0276413C20.8086 0.0168953 20.0564 -0.00263596 19.9265 0.000293732C19.8835 0.00127029 19.7009 0.00517654 19.5212 0.00908279ZM19.2867 13.858C19.9939 13.8756 20.2801 13.9039 20.7129 14.0006C21.1173 14.0914 21.3029 14.1783 21.4709 14.3581C21.6643 14.5651 21.7561 14.8523 21.7883 15.3572C21.8001 15.5448 21.7952 16.1035 21.7776 16.5098C21.7493 17.1691 21.7366 17.5988 21.7288 18.1897C21.7229 18.5492 21.7161 19.0287 21.7131 19.2544C21.7063 19.6988 21.7151 19.9214 21.7493 20.1676C21.7835 20.4127 21.8538 20.6462 21.9388 20.7966C22.0198 20.9411 22.1517 21.0759 22.265 21.1326C22.3139 21.156 22.3305 21.159 22.4125 21.158C22.4916 21.158 22.517 21.1531 22.5844 21.1277C23.1041 20.9314 23.8611 20.0054 24.8497 18.3558C25.3879 17.4591 25.8636 16.4854 26.3168 15.3572C26.4702 14.9744 26.523 14.8826 26.6685 14.74C26.7906 14.6198 26.943 14.5622 27.1452 14.5583C27.3152 14.5554 31.2966 14.528 31.5946 14.528C31.8837 14.528 31.9794 14.5378 32.1611 14.5866C32.3252 14.6306 32.4786 14.7165 32.5489 14.8034C32.589 14.8523 32.6241 14.9255 32.6407 14.991C32.6603 15.0681 32.6574 15.2869 32.6368 15.3944C32.5333 15.9159 32.1709 16.6367 31.5184 17.6193C31.1101 18.2356 30.6578 18.8529 29.8265 19.9283C28.9513 21.0623 28.7071 21.4022 28.5391 21.7206C28.3301 22.1161 28.3027 22.4092 28.4492 22.7139C28.5049 22.8321 28.6016 22.9756 28.7198 23.1173C28.8419 23.2648 29.2483 23.6681 29.6556 24.0461C30.398 24.7347 30.8551 25.1928 31.3162 25.7105C31.8056 26.2594 32.1465 26.7165 32.4014 27.1658C32.6124 27.5389 32.6661 27.7 32.6574 27.9413C32.6534 28.0438 32.6486 28.0761 32.6261 28.1357C32.5743 28.2743 32.4942 28.3798 32.3692 28.4736C32.167 28.625 31.8339 28.7412 31.5115 28.7715C31.4529 28.7774 31.0456 28.7861 30.608 28.792C30.1704 28.7969 29.4534 28.8057 29.0158 28.8115C28.5782 28.8164 28.1054 28.8262 27.9657 28.833C27.7733 28.8408 27.6824 28.8408 27.5916 28.8321C27.0084 28.7774 26.4175 28.5019 25.8656 28.0302C25.7229 27.9081 25.3176 27.5027 25.1369 27.3025C25.0646 27.2214 24.8604 26.9909 24.6836 26.7897C24.2626 26.3092 24.1229 26.1578 23.9012 25.94C23.572 25.6177 23.3327 25.4487 23.0914 25.3686C22.9781 25.3305 22.8267 25.3247 22.7222 25.353C22.2484 25.4829 21.931 26.0572 21.803 27.0163C21.7737 27.2361 21.76 27.406 21.7483 27.7225C21.7385 27.9911 21.7239 28.08 21.6701 28.2284C21.634 28.3281 21.5646 28.4384 21.5031 28.4941C21.3761 28.6103 21.1944 28.6963 20.9512 28.7539L20.8545 28.7774H19.8435C18.77 28.7774 18.7231 28.7754 18.3392 28.7275C17.0615 28.5674 15.7565 28.0897 14.6224 27.367C13.672 26.7614 12.8837 26.0494 12.0231 25.0219C10.891 23.6691 9.67486 21.8016 8.45189 19.5376C8.16959 19.017 7.96836 18.6283 7.63039 17.9504C7.19473 17.0802 6.96518 16.5996 6.63013 15.8554C6.40741 15.3612 6.39862 15.3318 6.39765 15.0984C6.39765 14.9626 6.3996 14.9412 6.42011 14.8923C6.48849 14.7234 6.70046 14.6101 7.04723 14.5563C7.18691 14.5348 7.28069 14.5339 9.27046 14.5212L11.0111 14.5104L11.1215 14.5407C11.3823 14.6101 11.5757 14.7097 11.7037 14.8425C11.8268 14.9685 11.8883 15.0808 12.0573 15.4842C12.4881 16.5166 12.9628 17.4699 13.5147 18.4056C14.3851 19.8824 15.0268 20.7351 15.5045 21.0476C15.652 21.1443 15.7594 21.1834 15.8933 21.1902C16.0027 21.1961 16.0642 21.1834 16.1619 21.1345C16.4754 20.9753 16.6591 20.3385 16.7294 19.1616C16.7499 18.8178 16.745 17.8996 16.7196 17.34C16.6933 16.7647 16.6737 16.5625 16.6142 16.2734C16.5702 16.0566 16.4999 15.8339 16.4325 15.6991C16.2879 15.411 16.0398 15.201 15.6784 15.0623C15.5738 15.0222 15.3316 14.9597 15.2144 14.9421C15.1607 14.9333 15.1265 14.9236 15.1147 14.9119C15.0757 14.8728 15.1001 14.7829 15.1851 14.6569C15.2427 14.571 15.4254 14.3932 15.5357 14.3151C15.9372 14.0299 16.5936 13.8931 17.7336 13.859C18.1038 13.8472 18.8491 13.8472 19.2867 13.858Z" fill="#47667B"/>
</svg>
